<?xml version="1.0" encoding="utf-8"?>
<!-- Generator: Adobe Illustrator 24.1.2, SVG Export Plug-In . SVG Version: 6.00 Build 0)  -->
<svg xmlns="http://www.w3.org/2000/svg" xmlns:xlink="http://www.w3.org/1999/xlink" version="1.1" id="Layer_1" x="0px" y="0px" width="1601.5px" height="297.7px" viewBox="0 0 1601.5 297.7" style="enable-background:new 0 0 1601.5 297.7;" xml:space="preserve">
<style type="text/css">
	.st0{fill:url(#SVGID_1_);}
	.st1{fill:#FFFFFF;}
	.st2{fill:#A72240;}
</style>
<g>
	<linearGradient id="SVGID_1_" gradientUnits="userSpaceOnUse" x1="803.236" y1="3.041" x2="803.236" y2="226.2344">
		<stop offset="0" style="stop-color:#EAE3E3"/>
		<stop offset="1" style="stop-color:#00689A"/>
	</linearGradient>
	<path class="st0" d="M982.5,226.2c-1.4,0-2.8-0.1-4.2-0.4c-3.3-0.6-6.4-1.7-9.5-2.8c-1.6-0.6-3.3-1.2-5.6-2.1   c-2.2-0.9-3.9-2.3-5.1-4.2c-0.5-0.7-0.4-1.1-0.2-1.6c0-0.1,0.2-0.3,0.2-0.5c0.1-0.5,0.2-1.1,0.4-1.7c0.2-1.2,0.5-2.3,0.9-3.3   c0.6-1.5,1.3-3.4,1.3-5.5c0-0.2,0.1-0.5,0.1-0.7l1.1-3.9c1.2-4.3,2.4-8.6,3.6-12.9c0.9-3.2,1.9-6.6,3.2-10.6   c0.6-1.9,1.2-3.8,1.9-5.6c0.7-2.2,1.4-4.3,2.1-6.5c0.5-1.7,1-3.3,1.4-5c0.3-1,0.5-1.9,0.8-2.9c0.2-0.5,0.4-1.1,0.6-1.7l0.1-0.2   c0-0.1,0.1-0.1,0.1-0.2c0.2-0.3,0.4-0.7,0.5-1.2c0.2-1.4,0.7-2.8,1.3-4.3c0.2-0.5,0.4-1.1,0.6-1.6c0.4-1.3,0.8-2.6,1.2-3.9   c0.5-1.8,1.1-3.6,1.8-5.3c0.5-1.3,0.9-2.6,1.2-3.8c0.2-0.6,0.3-1.2,0.5-1.9l0.7-2.3c1.4-4.6,2.8-9.1,4.3-13.7   c0.2-0.7,0.5-1.3,0.8-2c0.2-0.5,0.4-1.1,0.6-1.6c0.9-2.6,1.9-5.2,2.8-7.8l0.2-0.5c0.2-0.5,0.3-1,0.4-1.6c0.2-1.3,0.7-2.4,1.2-3.8   c0.5-1.3,0.9-2.6,1.3-3.8c0.2-0.7,0.4-1.3,0.6-2c0.5-1.3,1-2.7,1.4-4c1-2.7,2-5.5,2.9-8.3c0.9-2.9,2-5.8,3.1-8.6l0.3-0.7   c0.2-0.5,0.3-1,0.4-1.4c0-0.2,0.1-0.4,0.1-0.6c0.3-1.1,0.6-2.2,0.9-3.3c0.2-0.7,0.4-1.4,0.6-2.2c0.3-1,0.7-2,1.1-3c0,0,0,0,0.1-0.1   c0.1-0.3,0.4-0.7,0.4-1.3c0-1.2,0.5-2.3,1.1-3.5c0.3-0.8,0.7-1.6,0.9-2.4c0.3-1,0.8-2,1.2-3.1c0.2-0.5,0.4-1,0.6-1.5   c0.3-0.7,0.6-1.5,1-2.2c0.7-1.7,1.4-3.4,2.1-5.1c1-2.6,2-5.3,2.8-8c0.5-1.6,1.2-3.1,2-4.6l0.4-0.9c1.1-2.3,2.7-4.1,4.7-6.2   c3-3.1,6.8-4.6,10.4-5.7c0.2-0.1,0.4-0.1,0.6-0.1c0.4-0.1,0.9-0.2,1.4-0.4c2.6-1.1,5.3-1.1,8.3-1.2l0.2,0c3.4,0,6.3-0.1,9.2-0.2   c1.6-0.1,3.1-0.5,4.4-1c1.6-0.5,3.1-0.8,4.7-0.8l1.1,0c1.2,0,2.2,0,3-0.1c0.3,0,0.6,0,0.9,0c3.8,0,6.7,1.8,8.8,5.5   c1.8,3.1,3.3,6.6,4.6,10.8c0.5,1.7,1.2,3.3,1.8,4.9c0.3,0.8,0.6,1.5,0.9,2.3c0.1,0.2,0.2,0.5,0.2,0.7c0.1,0.2,0.1,0.4,0.2,0.6   c0.4,1.2,0.8,2.5,1.3,3.7c0.1,0.2,0.1,0.4,0.2,0.5c0,0.1,0.1,0.2,0.1,0.4l0.9,2.4c0.8,2.3,1.6,4.5,2.4,6.8c0.4,1.2,0.8,2.4,1.2,3.5   c0.4,1.2,0.8,2.3,1.2,3.5c0.2,0.5,0.4,1,0.7,1.6c0.1,0.2,0.2,0.4,0.3,0.6c0.1,0.2,0.2,0.3,0.2,0.4c0.5,1.6,1.1,3.2,1.6,4.8l0.7,2   c0.1,0.3,0.2,0.5,0.3,0.8c0.3,0.7,0.6,1.3,0.9,2c0.7,1.4,1.3,2.7,1.7,4c0.6,2.2,1.5,4.3,2.3,6.3c0.7,1.7,1.4,3.4,1.9,5.1   c0.5,1.6,1.2,3.3,1.8,4.8c0.3,0.8,0.6,1.6,0.9,2.4c0.2,0.4,0.2,0.7,0.3,1c0.2,1.7,0.7,3.1,1.5,4.4c0.2,0.3,0.2,0.4,0.2,0.4   c0.2,2.6,1.2,4.7,2.3,6.8c0.4,0.8,0.7,1.5,1.1,2.2l0.2,0.5c0.4,0.8,0.7,1.6,0.9,2.4c0.9,3.2,1.7,5.8,2.7,8.1c0.3,0.8,0.7,1.7,1,2.5   c0.2,0.6,0.4,1.2,0.6,1.9l1.1,3.4c0.2,0.6,0.4,1.2,0.6,1.8c0.4,1.2,0.8,2.3,1.2,3.5c0.1,0.2,0.2,0.4,0.3,0.6   c0.1,0.1,0.1,0.3,0.2,0.4c0.1,1.5,0.7,3,1.7,4.6c0.7,2.3,1.3,4.6,1.9,6.9c0,0,0,0.1,0,0.1c0,0.3,0.1,0.9,0.5,1.3   c0.7,0.9,1,2,1.3,3.2c0.3,1.2,0.6,2.4,1.3,3.5c0.4,2.5,1.3,4.9,2.2,7.1c0.4,1.2,0.9,2.4,1.3,3.6c0.5,1.5,0.9,3.1,1.4,4.7   c0.3,1,0.5,1.9,0.8,2.9c0.2,0.7,0.4,1.4,0.7,2l0.2,0.7c0.1,0.2,0.1,0.3,0.2,0.4c0.8,2.6,1.5,5.2,2.3,7.8c0,0.1,0,0.2,0.1,0.4   c0.9,2.6,1.7,5.1,2.6,7.7l0.8,2.4c0.1,0.3,0.2,0.6,0.3,0.9c0.2,0.7,0.4,1.3,0.6,1.9l0.1,0.4c0.2,0.8,0.4,1.5,0.5,2.2   c0.1,1.6,0.4,3.1,1,4.6c0.3,0.7,0.4,1.5,0.6,2.4c0,0.1,0,0.2,0.1,0.3l0,0.5c0,0.1,0,0.3,0,0.5c0,0.1,0,0.3,0,0.4   c-0.1,0.5-0.3,1.1-0.4,1.6c-1,4.3-2,8.3-4.7,11.6c-2.2,2.7-4.3,4.5-6.7,5.7c-0.9,0.4-1.7,0.6-2.4,0.6c-0.2,0-0.4,0-0.6,0   c-1.5-0.2-3.1-0.3-4.9-0.3c-1.7,0-3.6,0.1-5.9,0.3c-0.4,0-0.7,0.1-1.1,0.1c-1.9,0-3.8-0.5-5.8-1.6c-4.6-2.4-7.9-6.1-9.9-10.9   c-0.7-1.6-1.2-3.1-1.5-4.6c-0.4-1.8-1-3.9-2-5.6c-1.9-3.4-4.7-5.1-8-5.1c-7.4,0-14.9,0.1-21.2,0.2c-4.1,0.1-8.2,0.1-12.4,0.2   c-2.9,0.1-5.9,0.1-8.8,0.1l-0.3,0c-0.7,0-1.4,0-2-0.1c-0.6-0.1-1.3-0.1-1.9-0.1c-1.6,0-3.3,0.3-5.2,0.8c-0.2,0-0.3,0.1-0.5,0.1   c-0.3,0.1-0.6,0.2-0.7,0.2c-3.8,0.2-7.7,0.4-11.6,0.4c0,0,0,0,0,0c-0.8,0-1.5-0.2-2.4-0.3l-0.5-0.1c-1.9-0.4-3.4-1.4-4.8-3   c-0.2-0.2-0.3-0.4-0.5-0.6c-0.3-0.4-0.6-0.9-1-1.3c-0.7-0.7-1.5-1.2-2.2-1.4c-0.6-0.2-1.1-0.2-1.6-0.2c-1.1,0-1.7,0.5-2.1,0.8   c-0.6,0.6-0.8,1.6-0.7,2.8c0.1,0.9-0.2,1.7-0.7,2.9c-0.6,1.4-1,2.8-1.5,4.2c-0.3,0.9-0.6,1.9-1,2.8c-0.5,1.4-1.1,3-1.9,4.6   c-1.2,2.4-2.2,4.3-3.3,6c-1.6,2.5-3.7,4.8-6.4,6.8c-1.6,1.2-3.3,2-5.3,2.4C985.7,226.1,984.1,226.2,982.5,226.2z M1041.7,129.8   c1.1,0,1.9,0.1,2.7,0.4c1.5,0.7,3.1,1,5,1c0.3,0,0.6,0,1,0c0.4,0,0.8,0,1.3,0c0.4,0,0.7,0,1.1,0c0.4,0,0.7,0,1.1,0h1.5v-0.1   c0.4,0,0.7,0,1.1,0c0.5,0,1,0,1.5,0c0.2,0,0.4,0,0.6,0c2.3,0,4.5-0.8,6.8-2.3c1.8-1.2,2.3-2.9,1.4-4.9c-0.3-0.7-0.8-1.3-1.2-1.8   c-0.8-1-1.4-2-1.9-3.2c-0.2-0.5-0.5-1.1-0.7-1.6c-1-2.4-2-4.9-3.5-7.2c-0.2-0.4-0.5-0.8-0.7-1.3c-0.2-0.5-0.4-0.9-0.7-1.3   c-0.5-0.9-0.8-1.9-0.8-3c0-2.4-0.8-4.4-2.6-5.9c-0.3-0.3-0.6-0.6-1-0.9l-0.3-0.3c-1.4-1.5-3.1-2.2-5-2.2c-2.7,0-5.3,1.6-6.6,4.1   c-1.5,2.8-2.6,5.8-3.5,8.6c-1,3-2.1,5.8-2.9,8c-0.5,1.5-1,3-1.4,4.4c-0.3,0.9-0.5,1.8-0.8,2.7c-0.5,1.4-0.7,4.1,2.6,5.8   c1.4,0.7,2.9,1.1,4.8,1.1C1040.5,129.8,1041.5,129.8,1041.7,129.8z M559.2,225.2c-0.6,0-1.1-0.1-1.5-0.4c-1.8-1.1-3.8-1.3-5.8-1.5   c-1.8-0.2-3.6-0.4-5.3-0.7c-1.2-0.2-2.4-0.3-3.6-0.5c-1.6-0.2-3.1-0.3-4.6-0.3c-1.2,0-2.1-0.1-2.9-0.6c-1.2-0.7-2.5-0.8-3.7-0.8   l-0.3,0c-1.6,0-3.2,0-4.9,0c-1.8,0-3.6,0-5.3-0.1c-0.6,0-1.3-0.2-2.1-0.4c-0.3-0.1-0.5-0.1-0.8-0.2c-0.3-0.1-0.5-0.2-0.8-0.2   c-0.6-0.2-1.2-0.4-2-0.5c-1.7,0-3-0.9-4.6-2.1c-1.2-0.9-2.3-1.7-3.5-2.6c-2.1-1.6-3.5-3.1-4.4-4.8c-0.3-0.6-0.8-1.2-1.2-1.7   c-0.2-0.2-0.3-0.5-0.5-0.7c-0.2-0.3-0.5-0.7-0.7-1c-0.5-0.6-0.9-1.2-1.2-1.8c-1-2.4-1.9-4.8-2.9-7.5c-0.3-1-0.6-1.9-0.9-2.9   c-0.3-1.1-0.7-2.2-1.1-3.3c-0.4-1-0.8-1.9-1.2-2.8c-0.3-0.8-0.7-1.6-1-2.3c-0.2-0.6-0.5-1.5-0.5-2.2c-0.1-3.8-0.1-7.7-0.1-11.4   c0-3.7,0-7.4,0-11.1l0-6.2h-0.2c0-1.2,0-2.4,0-3.6c0-3.8,0-7.7,0-11.6c0.1-5.9,0.4-11.6,1-17.1c0.2-2.1,0.2-4.2,0.2-6   c0-10.9-0.1-21.7-0.2-32.6c-0.1-14.9-0.2-29.8-0.3-44.7c0-3.3-0.1-6.8-0.2-9.6c0-1.2,0.2-2.2,0.8-3.3c0.5-1,1-2.2,1.2-3.4   c0.4-1.9,1.3-3.4,2.6-4.6c1-1,2-2,3-3c0.6-0.6,1.2-1.2,1.8-1.8c1.4-1.4,3.1-2.6,4.9-3.6c2-1,3.9-2.1,5.7-3.2   c0.9-0.5,1.7-0.8,2.5-0.8c0.6,0,1.2,0,1.8,0c0.7,0,1.4,0,2.1,0c0.5,0,1.1,0,1.6,0c0.3,0,0.6,0,0.9,0c2.3,0,4.1-0.4,5.8-1.4   c0.8-0.4,1.7-0.5,2.6-0.5c3.6,0,7.1-0.1,10.7-0.1c5.4,0,10.7-0.1,16.1-0.1c2.6,0,5.3,0,7.9,0l6.7,0c2.6,0,5.1,0,7.7,0   c1.3,0,2.6-0.1,3.9-0.1c1,0,1.9-0.1,2.9-0.1c2,0,4.1-0.1,6.1-0.1c2.5,0,5-0.1,7.4-0.2c0.2,0,0.3,0,0.5,0c1.4,0,2.5,0.2,3.5,0.6   c0.5,0.2,0.9,0.4,1.5,0.5c2.1,0.3,4.1,1.1,6.2,1.9c0.6,0.2,1.2,0.5,1.9,0.7c0.9,0.3,1.8,0.6,2.7,0.8l0.6,0.1   c2.7,0.7,5.5,1.4,7.9,2.8c0.7,0.4,1.4,0.8,2.2,1c1.6,0.5,3,1.4,4.7,3c1,0.9,2.2,1.7,3.3,2.5l0.6,0.4c0.8,0.6,1.7,1.2,2.5,1.8   c1.7,1.1,3.3,2.2,4.7,3.5c2,1.7,3,3.6,2.9,5.9c-0.1,5-1.5,9-4.2,12.4c-1.5,1.9-2.9,3.9-4.1,5.9l-0.1,0.1c-0.9,1.4-1.8,2.9-2.6,4.3   c-0.5,0.9-1.1,1.8-1.6,2.7c-0.3,0.4-0.6,0.8-1,1.3c-2.2,2.5-4.8,5.3-8,7.6c-2.8,2-6.1,4.1-10,4.6c-0.8,0.1-1.6,0.3-2.3,0.7   c-1.4,0.7-2.9,0.8-4.3,0.9c-1.8,0.1-3.9,0.2-6,0.4c-4,0.5-8.2,1-12.6,1c0,0-1.3,0-1.8,0l-3.8,0c-2.7,0-5.6,0-8.4-0.4   c-1-0.1-2.1-0.1-3.1-0.2l-0.8,0c-5.8-0.1-12-0.3-18-1c-0.4,0-0.9-0.1-1.4-0.1c-0.5,0-1.1,0-1.7,0.1c-2.1,0.2-3.7,1.4-4.4,3.5   c-0.3,0.8-0.5,1.6-0.6,2.4c-0.4,3.8,1,5.6,4.7,6.3c0.6,0.1,1.2,0.3,1.8,0.5c0.7,0.2,1.5,0.4,2.3,0.6c1.4,0.2,2.8,0.4,4.6,0.5   c0.2,0,0.3,0,0.5,0c0.6,0,1.2,0,1.8-0.1c0.4,0,0.8-0.1,1.1-0.1c0.1,0,0.3,0,0.4,0c1.3,0,2.4,0.2,3.5,0.7c1.7,0.8,3.6,1.1,5.6,1.1   c0.3,0,0.5,0,0.8,0c1.7-0.1,3.5-0.2,5.2-0.2c2.1-0.1,4.1-0.2,6.2-0.3c0.2,0,0.4,0,0.5,0c0.9,0,1.7,0.2,2.3,0.5l0.1,0.1   c0.2,0.1,0.5,0.3,0.8,0.3c0.7,0.2,1.4,0.3,2.2,0.5c2,0.4,4,0.8,5.8,1.7c0.3,0.1,0.6,0.2,1,0.2c0.2,0,0.3,0,0.5,0   c0.5,0,0.9-0.1,1.4-0.1c3.7,0,7.1,1.5,10.7,3.1l1.4,0.6c1.1,0.5,2.3,1,3.7,1c1.5,0,2.9,0.7,4.1,2.2c1.6,1.9,3.4,4.2,4.4,6.8   c0.7,1.7,1,3.1,1,4.7c0.2,6.4,0,12.9-0.1,19.2l0,1.9c-0.1,2.2,0,4.6,0.3,6.9c0.2,1.7-0.1,3-1,4.3c-1.5,2.3-3.5,4.4-6.3,6.9   c-0.6,0.5-1.3,0.7-2.3,0.7l-1,0c-1,0-2,0-2.9-0.1c-0.3,0-0.6,0-1,0c-2.3,0-4.1,0.4-5.7,1.2c-0.3,0.1-0.6,0.3-0.7,0.3   c-1.6,0.1-3.2,0.3-4.7,0.5c-2.1,0.3-4,0.6-6,0.6c-1.2,0-2.3-0.1-3.3-0.3c-2.4-0.5-4.9-0.5-7-0.5c-0.7,0-1.3,0-2,0   c-0.6,0-1.2,0-1.8,0c-3.3,0-6.7,0.1-9.9,0.1c-3.2,0.1-6.6,0.1-9.9,0.1c-2.9,0-5.2,1-7.1,2.9c-0.5,0.5-0.9,1-1.2,1.5   c-1.3,2.3-2.4,4.1-3.4,5.9c-0.4,0.7-0.7,1.4-0.8,2.2c-0.4,2.1,0.6,4,2.6,4.7c1.1,0.4,2.3,0.6,3.4,0.6l0.3,0c1.3,0,2.7-0.1,4-0.1   c1,0,1.9-0.1,2.9-0.1c6.4-0.1,12.9-0.2,19.3-0.3l2.6,0c0.3,0,0.6,0,1,0c0.4,0,0.8,0,1.2,0c0.8,0.1,1.6,0.1,2.3,0.1   c2.4,0,4.4-0.4,6.4-1.1c1.1-0.4,2.4-0.5,3.6-0.6c3.3-0.1,6.6-0.2,9.8-0.2l1.9,0c1.1,0,2.2,0.2,3.4,0.7c1.3,0.5,2.6,0.8,3.7,0.8   c2.3,0,4.6,0.8,7.2,2.6c4.9,3.3,9.4,7.1,14.6,11.9c0.9,0.8,1.8,1.7,2.7,2.6c1.3,1.2,2.6,2.5,4,3.7c1.8,1.6,3.1,3.5,4.5,5.5l0.5,0.7   c0.7,1,0.7,2.4-0.1,4.4c-0.6,1.4-1,2.5-1.3,3.7c-0.2,0.7-0.5,1.4-0.9,2.2l-0.2,0.3c-0.2,0.4-0.4,0.7-0.6,1.1   c-0.3,0.5-0.6,1.1-0.8,1.7c-0.4,0.9-0.7,1.9-0.5,2.9c0.4,1.8-0.6,2.9-2.3,4.3c-1,0.9-2.3,1.6-3.6,2c-3.4,1-7,1.9-10.9,2.3   c-0.8,0.1-1.5,0.1-2.3,0.2c-2.1,0.2-4.1,0.4-6.1,0.4c-0.5,0-1.1,0-1.6,0c-0.2,0-0.3,0-0.5,0c-1.7,0-3.4,0.5-5,1.6   c-1.2,0.8-2.6,1.5-4,2.1l-0.2,0.1c-1.1,0.5-2.1,0.8-3,0.8c-0.3,0-0.7,0-1-0.1c-0.6-0.1-1.1-0.2-1.7-0.2c-1.1,0-2.2,0.2-3.4,0.6   c-2.6,0.8-5.4,1.2-8.8,1.2c-0.6,0-1.1,0-1.7,0c-0.2,0-0.4,0-0.6,0c-2.3,0-4.6,0.5-6.8,1.3c-0.7,0.3-1.5,0.4-2.6,0.4   c-1.7,0-3.3,0-5,0c-1.7,0-3.5,0-5.2,0.1c-1.8,0-3.7,0.2-5.5,0.5C559.9,225.2,559.5,225.2,559.2,225.2z M39,224.5   c-2.4,0-4.8-0.8-7.3-1.8c-1-0.4-2-1-3-1.8c-1.8-1.5-3.8-2.7-5.8-3.8c-1-0.6-2-1.2-2.9-1.8c-3.2-2.1-5.6-4.3-7.6-6.8   c-1.9-2.5-3-5.4-3.2-8.9c-0.4-5.1-0.5-9.3-0.4-13.1c0.1-2.8,0-5.7-0.1-8.4c0-1.3-0.1-2.5-0.1-3.8c0-1.7-0.1-3.4-0.1-5.1   c-0.1-4-0.2-8.2-0.3-12.3c0-5.3,0-10.6,0-15.8c0-2.3,0-8.3,0-8.3H8.1l0-5.8c0-5.5,0-11.1,0-16.6l0-2c0-7.2,0-14.7-0.1-22   c-0.1-5.9,0.4-12,0.8-17.8l0-0.5C8.9,67.4,8.9,66.7,9,66c0.1-2.7,0.1-5.4,0.2-8.1c0.1-6,0.3-12.3,0.5-18.4c0-0.6,0-1.2,0.1-1.9   c0.1-3,0.2-5.9,0.8-8.8c0.2-1,0.3-2.1,0.3-3.1c0-0.5,0-1,0.1-1.5l0.1-0.8c0.1-1.4,0.2-2.6,0.5-3.9c0.2-1.3,0.8-2.3,1.5-3.2   c0.7-0.7,1.4-1.5,2.1-2.2c0.6-0.6,1.2-1.2,1.8-1.9c0.6-0.7,1.4-1,2.2-1c0,0,0.4,0,0.5,0c1.7,0,3.4-0.4,5.2-1.3   c1.4-0.7,2.9-1.3,4.4-1.8c2.1-0.7,4-1.1,5.8-1.1c3.1,0,5.8,1,8.3,3.1c0.3,0.2,0.6,0.6,0.9,0.9c0.2,0.2,0.4,0.4,0.6,0.6   c0.3,0.3,0.5,0.6,0.8,0.9c0.6,0.7,1.3,1.4,2,2.1c3.2,2.8,5.7,6.5,7.3,10.9c1.7,4.5,2.5,8.1,2.4,11.6c-0.1,4-0.1,8.1,0,12.1   c0,2,0.1,4.1,0.1,6.1c0,2.4,0.4,4.4,1.3,6.3l0.1,0.2c0.1,0.2,0.2,0.4,0.2,0.5c0.1,2.9,1.4,5.3,2.7,7.6l0.2,0.4   c0.8,1.4,0.9,2.6,0.5,4c-0.2,0.9-0.3,1.6-0.3,2.3c0.1,4.4,2.3,5.7,4.7,6.4c2.8,0.8,5.6,1.3,8.7,1.3c0.7,0,1.4,0,2.2-0.1   c3.9-0.2,7.7-0.4,11.3-0.4c1.8,0,3.5,0.1,5.3,0.1c1.8,0.1,3.6,0.1,5.4,0.1c0.6,0,1.2,0,1.8,0c1.3,0,2.5-0.1,3.8-0.1   c4.1-0.1,8.3-0.1,12.4-0.8c1.9-0.3,3.8-0.5,5.7-0.7l1.1-0.1c2.1-0.2,3.9-0.9,5.3-2.1c0.4-0.4,0.9-0.7,1.3-1.1   c0.7-0.6,1.4-1.2,2.1-1.8c2.7-2.5,4-5.3,3.9-8.5c0-3,0-6.1,0-9.1c0-1.2,0-2.3,0-3.5c0-1,0-2,0-3c0-2.5,0-5,0.1-7.5   c0.1-2.6,0.4-5.3,0.7-7.9l0-0.4c0.3-2.9,0.7-6.2,0.3-9.4c-0.1-1.1,0-2.2,0.5-3.2c0.3-0.7,0.7-1.5,1-2.2c0.4-0.9,0.8-1.8,1.2-2.6   c0.3-0.6,0.6-1.2,1-1.6c0.9-1,1.8-1.9,2.6-2.9c2.3-2.6,4.7-5.3,7.4-7.5c2-1.7,4.5-2.6,7-3.5l0.1-0.1c0.3-0.1,0.7-0.2,1.1-0.2   c0.5,0,1.1,0.1,1.6,0.4c1.4,0.7,2.9,1.1,4.4,1.1c0.4,0,0.8,0,1.2-0.1c0.2,0,0.3,0,0.5,0c0.9,0,1.8,0.3,2.9,0.8   c1.9,1,3.7,1.9,5.6,2.8c1.1,0.6,2.2,1.1,3.4,1.7c3.2,1.6,5.5,3.7,7.1,6.5c0.5,0.8,0.9,1.6,1.4,2.3l0.3,0.5c0.7,1.2,1.1,2.3,1.2,3.4   c0,0.7,0.2,1.4,0.5,2.2c1.6,4.7,1.9,9.7,1.9,14c0,0.3,0,0.6,0,0.9c-0.5,3-0.5,6-0.4,8.9l0,1.1c0.1,5.4,0.1,10.7,0.2,16.1   c0.1,4.5,0.1,9,0.2,13.5c0.1,7.8,0.2,17.1,0.2,26.3c0,5.7,0,11.4,0.1,17.1c0,7.1,0,14.2,0.1,21.3c0,4.2,0.1,8.5,0.2,12.6   c0.1,2.9,0.1,5.9,0.2,8.8c0,2.3,0,4.5,0,6.8c0,1.7,0,3.4,0,5.1c0,0.8,0.1,1.7,0.1,2.5c0,0.4,0,0.8,0.1,1.2l0.1,3   c0.1,2.8,0.3,5.6,0.4,8.4c0.1,1.7-0.2,3.2-0.9,4.5c-0.3,0.6-0.8,1.8-0.7,3c0.1,1.7-0.6,3-1.7,4.5c-1.7,2.3-3.8,4.3-6.4,6   c-0.9,0.6-1.8,1.3-2.6,1.9c-0.5,0.4-1,0.8-1.5,1.1l-1,0.8c-1.2,0.9-2.3,1.7-3.4,2.4c-1.1,0.6-2.3,1-3.6,1c-0.3,0-0.6,0-0.8,0   c-1.7-0.2-3.4-0.3-5.1-0.5c-2.1-0.2-4.3-0.5-6.4-0.7c-2.2-0.2-4.3-1.2-6.4-2.9c-1.9-1.6-4-3.6-5.2-6.2c-0.4-0.9-0.8-1.7-0.8-2.5   c0-4.9-2.2-9-4.3-12.5c-1-1.7-2.4-3-3.8-4.3l-0.1-0.1c-2.4-2.3-3.6-5-3.8-8.2c-0.1-1.1-0.4-2.3-0.9-3.6c-0.5-1.2-0.7-2.2-0.8-3.1   c-0.1-2.4-0.5-4.5-1.2-6.4c-0.3-0.8-0.3-1.7-0.4-2.8c0-0.9,0-1.8,0-2.7c0-0.9,0-1.7,0-2.6c-0.1-3.3-1.8-5-5.1-5.3   c-0.2,0-0.4,0-0.6,0c-0.2,0-0.4,0-0.6,0l-0.3,0l-3.2,0.1c-3,0.1-5.9,0.1-8.9,0.2l-2,0.1c-3.8,0.1-7.8,0.2-11.7,0.4l-3,0.1   c-4.2,0.2-8.5,0.4-12.7,0.4c-0.6,0-1.3,0-1.9,0l-0.2,0c-1,0-1.9,0.1-2.9,0.1c-0.7,0.1-1.4,0.1-2.1,0.1c-0.7,0-1.4,0-2.1,0   c-0.8,0-1.6,0-2.4-0.1c-0.6,0-1.3-0.1-1.9-0.1c-1.6,0-2.8,0.2-3.9,0.6c-0.3,0.1-0.6,0.1-0.9,0.1c-0.7,0-1.5-0.2-2.5-0.7   c-0.1,0-0.2-0.2-0.4-0.3l-0.1-0.1c-0.9-0.7-1.9-1.1-2.9-1.1c-0.7,0-1.4,0.2-2.1,0.6c-1.5,0.9-2.1,2.6-1.9,4.6   c0,0.3,0.1,0.5,0.1,0.8c0.2,1.5,0.4,3.2,1.4,4.8c0.5,0.8,0.5,2,0.5,3.2l0,0.1c0,1.6,0,3.2,0,4.7l0,2.9c0,1.7,0.1,3.8,1.5,5.6   c0.4,0.5,0.4,1.2,0.4,2.1l0,6.7c0,3.4,0,6.8,0.1,10.2c0,1.6-0.2,2.8-0.7,3.9c-0.3,0.6-0.5,1.3-0.6,1.9c0,0.2-0.1,0.4-0.1,0.6   c-0.1,0.3-0.1,0.6-0.2,0.9c-0.1,0.5-0.2,0.9-0.3,1.3c-1.4,2.9-2.7,5.4-4.6,7.7c-0.3,0.3-0.5,0.7-0.8,1c-0.6,0.8-1.2,1.5-1.8,2.1   c-1.1,1.1-2.4,2.2-3.9,3.4c-0.7,0.6-1.6,0.9-2.6,0.9c-0.2,0-0.4,0-0.7,0l-0.3,0c-0.3,0-0.6-0.1-1-0.1c-0.2,0-0.5,0-0.7,0.1   C40.4,224.5,39.7,224.5,39,224.5z M1520.1,220.7c-3.6-0.1-6.6-0.9-9-2.7c-0.1-0.1-0.3-0.2-0.4-0.3c-0.4-0.4-1-0.8-1.6-1   c-1.9-0.8-3.2-2.4-4.2-3.8c-1.1-1.6-2.2-3.3-3.3-4.9l-1-1.4c-0.1-0.1-0.2-0.3-0.3-0.4c-0.2-1.6-0.6-3.3-1.1-4.8   c-0.6-2-1.1-3.8-1-5.8c0.2-7.7,0-15.4-0.1-22.4c-0.2-6.7-0.4-13.6-0.7-20.2l-0.1-3.1c-0.1-3.6-0.3-7.3-0.5-10.9   c-0.2-4-0.4-7.9-0.5-11.9c-0.3-6.7-0.5-13.4-0.7-20.1l-0.2-5.2c-0.1-1.7-0.1-3.4-0.1-5.1c0.1-2.9-1.1-4.9-3.6-6.1   c-3.1-1.5-5.5-4-7.7-6.5c-1.3-1.3-1.8-2.8-1.8-4.4c0-0.5,0-1.1,0-1.6c-0.3-3.5-1.6-5.1-5.1-6c-1.1-0.3-2.2-0.3-3.3-0.3l-1.9,0   c-4.7,0-9.5,0.1-14.3,0.2c-0.2,0-0.3,0-0.5,0c-2.1,0-4.2-0.4-6.7-0.9c-1.6-0.3-2.8-1.4-3.8-3.5c-0.4-0.9-0.7-1.8-1-2.8   c-0.9-3.6-3-6.2-6.2-7.9c-3.5-1.8-6.4-4.5-9.4-7.2l-1-0.9c-0.4-0.4-0.9-1.1-1.2-2.1c-0.3-0.9-0.5-1.9-0.7-2.9l-0.1-0.7   c-0.1-0.6-0.1-1-0.1-1.4c0.1-1.6,0.3-3.2,0.5-4.7l0.1-1.3c0-0.3,0.1-0.6,0.1-0.7c0.6-1.5,0.9-3,1.2-4.5c0.2-0.8,0.3-1.7,0.5-2.4   c0.7-2.9,1.9-6.5,4.3-9.5l0.6-0.7c0.4-0.5,0.9-1.1,1.4-1.6c1-1.1,2.2-1.9,3.8-2.4c1-0.3,1.9-0.7,2.9-1.1c0.4-0.2,0.7-0.3,1.1-0.4   c3.2-1.3,6.8-2.4,10.7-2.4c7.3,0,14.7-0.1,21.8-0.3c4.1-0.1,8.3-0.1,12.4-0.2c6.7-0.1,13.3-0.1,20-0.2l10.3-0.1l0,0   c2.1,0,4.2,0,6.4,0c2.6,0,5.2,0,7.8,0c3.9,0,7.1,0,10-0.1c7.4-0.2,15.3-0.4,25.6-0.5c4.8,0,9.1-0.1,13.1-0.3c0.1,0,0.3,0,0.4,0   c1.8,0,3.4,0.6,4.7,1.8l1,0.9c2.3,2,4.4,3.9,6,6.3l0.5,0.7c1.3,1.9,2.6,3.9,3.6,6c1,2.2,1.3,4.6,1,6.9c-0.6,4.1-0.4,8.3-0.3,12.3   c0.1,2.3,0,4.4-0.8,6.2c-0.3,0.7-0.4,1.4-0.5,2c0,0.2,0,0.3-0.1,0.5c-0.4,2.1-2.4,4-4.5,4.2c-0.3,0-0.7,0-1,0c-0.2,0-1.4,0-1.4,0   c-0.3,0-0.5,0-0.8,0c-0.3,0-0.6,0-0.9,0c-0.2,0-0.3,0-0.5,0c-3.8,0.2-5.6,2-5.8,5.8l0,0.4c-0.1,1.1-0.1,2.1-0.3,3.1   c-0.3,1.4-1,2.8-2.2,4.2c-2.8,3.1-5.5,4.7-8.7,5.1c-2.8,0.4-5.6,1.2-9.3,2.6c-3.5,1.4-6.4,2-9.1,2c-1.1,0-2.2-0.1-3.3-0.3l-0.3-0.1   c-0.7-0.1-1.4-0.3-2.2-0.4c-0.2,0-0.4,0-0.5,0c-2.7,0-4.6,1.5-5.3,4.2c-0.2,0.7-0.4,1.3-0.5,1.9c-0.2,0.7-0.4,1.4-0.6,2.1   c0,0.2-0.1,0.3-0.1,0.5c-0.2,0.6-0.4,1.3-0.4,2.1c0,0.7,0,1.4,0,2c-0.1,4.4-0.2,8.9,0.8,13.4c0.3,1.3,0.5,2.7,0.5,4   c0.1,4.9,0.1,10.1,0,16.7c0,0.7-0.1,1.5-0.2,2.3c0,0.3-0.1,0.7-0.1,1c0,0.1,0,0.3-0.1,0.4c-0.1,0.3-0.1,0.7-0.1,1.1l0,3.1   c-0.1,4.9-0.1,9.9-0.1,14.9c0,1.6,0.1,3.1,0.2,4.6c0,0.9,0.1,1.8,0.1,2.6c0,0.3,0,0.6,0,1c0,0.3,0,0.5,0,0.8c0,0.5,0,1.1-0.1,1.6   c0,1.3-0.1,2.7,0,4.1c0.2,4.3,0.2,8.3,0,12.1c-0.1,1.5,0,3,0.1,4.5c0.1,1,0.1,1.9,0.1,2.8l0,0.4c0,4.7,0.1,9.6-0.5,14.3   c-0.1,0.6-0.2,1.2-0.4,1.7c-0.6,1.8-0.8,3.6-0.6,5.7c0.1,0.8,0.1,1.6,0.2,2.3l0,0.6c0,0.3,0,0.5,0,0.6c0,0.3-0.1,0.6-0.1,0.9   c0,0.3-0.1,0.9-0.1,1c-0.8,1.2-1,2.5-1.3,3.7c-0.3,1.4-0.6,2.6-1.5,3.4c-1.9,1.7-4,3.3-7,3.3c-1.3,0-2.6,0.1-3.8,0.1   c-1.3,0-2.6,0.1-3.9,0.1C1520.6,220.7,1520.3,220.7,1520.1,220.7z"/>
	<path class="st1" d="M599.5,4.6c1.2,0,2.1,0.2,2.9,0.5l0.1,0c0.4,0.2,1,0.4,1.8,0.6c1.9,0.3,3.8,1,5.9,1.8c0.6,0.3,1.3,0.5,1.9,0.7   c1,0.4,1.9,0.6,2.9,0.8l0.6,0.1c2.7,0.7,5.3,1.3,7.5,2.6c0.7,0.4,1.5,0.9,2.5,1.2c1.4,0.4,2.7,1.2,4.2,2.6c1.1,1,2.3,1.8,3.4,2.6   l0.6,0.4c0.9,0.6,1.7,1.2,2.6,1.8c1.6,1.1,3.2,2.2,4.6,3.4c1.7,1.4,2.4,2.9,2.4,4.7c-0.1,4.7-1.3,8.3-3.9,11.4   c-1.6,1.9-2.9,4.1-4.2,6.1l-0.1,0.2c-0.9,1.4-1.8,2.9-2.6,4.4c-0.5,0.9-1.1,1.8-1.6,2.7c-0.2,0.3-0.5,0.7-0.8,1   c-2.1,2.4-4.7,5.2-7.7,7.3c-3.3,2.3-6.2,3.9-9.4,4.3c-1,0.1-1.9,0.4-2.7,0.9c-1.1,0.6-2.4,0.7-3.7,0.7c-1.8,0.1-4,0.2-6.1,0.4   c-3.9,0.5-8.1,1-12.4,1l-0.4,0c-0.5,0-0.9,0-1.4,0c-0.6,0-1.3,0-1.9,0c-0.6,0-1.3,0-1.9,0c-2.7,0-5.5,0-8.2-0.4   c-1.1-0.1-2.2-0.1-3.2-0.2c-0.3,0-0.5,0-0.8,0c-5.8-0.1-11.9-0.3-17.9-0.9c-0.5-0.1-1-0.1-1.6-0.1c-0.6,0-1.2,0-1.8,0.1   c-2.7,0.3-4.7,1.9-5.7,4.5c-0.3,0.9-0.5,1.8-0.6,2.7c-0.7,6,3.1,7.4,6,8c0.5,0.1,1.1,0.3,1.7,0.4c0.8,0.2,1.6,0.4,2.4,0.6   c1.4,0.2,3,0.4,4.8,0.5c0.2,0,0.4,0,0.5,0c0.7,0,1.3,0,1.9-0.1c0.4,0,0.7-0.1,1.1-0.1c0.1,0,0.2,0,0.3,0c1,0,2,0.2,2.9,0.6   c1.9,0.8,4,1.3,6.2,1.3c0.3,0,0.6,0,0.9,0c1.7-0.1,3.4-0.2,5.2-0.2c2-0.1,4.1-0.2,6.2-0.3c0.2,0,0.3,0,0.5,0c0.7,0,1.2,0.1,1.7,0.3   l0.1,0c0.2,0.1,0.6,0.3,1.2,0.5c0.7,0.2,1.5,0.3,2.2,0.5c2,0.4,3.8,0.8,5.4,1.6c0.5,0.2,1.1,0.4,1.7,0.4c0.2,0,0.5,0,0.6,0   c0.4,0,0.8-0.1,1.3-0.1c3.4,0,6.7,1.4,10.1,3c0.4,0.2,0.9,0.4,1.3,0.6l0.1,0.1c1.1,0.5,2.6,1.1,4.3,1.2c0.4,0,1.6,0,2.9,1.6   c1.5,1.8,3.2,4,4.2,6.4c0.6,1.5,0.9,2.8,0.9,4.2c0.2,6.4,0,12.9-0.1,19.2l0,1.9c-0.1,2.3,0,4.7,0.3,7.1c0.1,1.3-0.1,2.3-0.8,3.3   c-1.5,2.2-3.3,4.2-6.1,6.6c-0.1,0.1-0.4,0.3-1.3,0.4c-0.3,0-0.6,0-0.9,0c-1,0-2,0-2.9-0.1c-0.3,0-0.7,0-1,0c-2.5,0-4.5,0.4-6.4,1.4   l-0.1,0c-0.1,0-0.2,0.1-0.3,0.1c-1.6,0.1-3.1,0.3-4.6,0.5c-2,0.3-3.9,0.5-5.8,0.5c-1.1,0-2.1-0.1-3-0.3c-2.5-0.5-5.1-0.6-7.3-0.6   c-0.7,0-1.3,0-2,0c-0.6,0-1.2,0-1.8,0c-3.3,0-6.7,0.1-9.9,0.1c-3.2,0.1-6.6,0.1-9.9,0.1c-3.3,0-6.1,1.1-8.2,3.4   c-0.6,0.6-1.1,1.2-1.4,1.8c-1.4,2.3-2.4,4.1-3.4,5.9c-0.5,0.8-0.8,1.7-1,2.6c-0.6,2.8,0.9,5.5,3.5,6.4c1.3,0.5,2.7,0.7,3.9,0.7   l0.3,0c1.4,0,2.7-0.1,4.1-0.1c1,0,1.9-0.1,2.9-0.1c6.3-0.1,12.5-0.2,18.8-0.3l2.6,0l0.5,0c0.3,0,0.6,0,0.9,0c0.4,0,0.8,0,1.1,0   c0.9,0.1,1.6,0.1,2.4,0.1c2.5,0,4.8-0.4,6.9-1.2c0.9-0.3,2.1-0.4,3.2-0.5c3.2-0.1,6.6-0.2,9.8-0.2l1.8,0l0.1,0   c0.9,0,1.8,0.2,2.8,0.6c1.5,0.6,2.9,0.9,4.2,0.9c2,0,4,0.7,6.3,2.3c4.8,3.2,9.2,7,14.4,11.8c0.9,0.8,1.8,1.7,2.6,2.5   c1.3,1.2,2.6,2.5,4,3.8c1.6,1.4,2.9,3.3,4.3,5.3l0.5,0.7c0.4,0.6,0.3,1.5-0.3,2.9c-0.6,1.4-1,2.7-1.3,4c-0.1,0.5-0.4,1.2-0.8,1.9   l-0.2,0.3c-0.1,0.3-0.3,0.6-0.5,1c-0.3,0.5-0.6,1.1-0.9,1.8c-0.5,1.1-0.9,2.4-0.6,3.8c0.2,0.8-0.1,1.3-1.8,2.9   c-0.9,0.8-1.9,1.4-3,1.7c-3.3,1-6.9,1.9-10.6,2.2c-0.8,0.1-1.6,0.1-2.3,0.2c-2.1,0.2-4,0.4-5.9,0.4c-0.5,0-1,0-1.5,0   c-0.2,0-0.4,0-0.6,0c-2,0-4,0.6-5.9,1.8c-1.2,0.7-2.5,1.4-3.8,2l-0.1,0.1c-0.9,0.4-1.6,0.6-2.3,0.6c-0.2,0-0.5,0-0.7-0.1   c-0.7-0.1-1.3-0.2-2-0.2c-1.2,0-2.5,0.2-3.9,0.7c-2.5,0.8-5.1,1.2-8.4,1.2c-0.5,0-1.1,0-1.6,0c-0.2,0-0.5,0-0.7,0   c-2.5,0-5,0.5-7.4,1.5c-0.5,0.2-1.2,0.3-2.1,0.3c-1.6,0-3.3,0-5,0c-1.7,0-3.5,0-5.3,0.1c-1.9,0-3.8,0.2-5.7,0.5   c-0.3,0.1-0.6,0.1-0.8,0.1c-0.4,0-0.6-0.1-0.7-0.2c-2.1-1.2-4.3-1.5-6.4-1.7c-1.7-0.2-3.4-0.4-5.3-0.7c-1.2-0.2-2.4-0.3-3.7-0.5   c-1.6-0.2-3.2-0.3-4.7-0.3c-1,0-1.6-0.1-2.2-0.4c-1.5-0.9-3.1-1-4.4-1l-0.3,0c-1.6,0-3.2,0-4.9,0c-2,0-3.7,0-5.3-0.1   c-0.5,0-1.1-0.2-1.7-0.3c-0.3-0.1-0.5-0.1-0.8-0.2c-0.2,0-0.4-0.1-0.6-0.2c-0.7-0.2-1.5-0.5-2.4-0.5c-1.2,0-2.3-0.8-3.8-1.8   c-1.2-0.9-2.4-1.8-3.5-2.6c-1.9-1.5-3.2-2.8-4-4.4c-0.4-0.7-0.9-1.3-1.3-1.9c-0.2-0.2-0.3-0.4-0.5-0.7c-0.2-0.4-0.5-0.7-0.8-1   c-0.4-0.6-0.8-1.1-1-1.5c-1-2.3-1.9-4.7-2.8-7.4c-0.3-0.9-0.6-1.9-0.9-2.8c-0.3-1.1-0.7-2.2-1.1-3.4c-0.4-1-0.8-2-1.2-2.9   c-0.3-0.8-0.7-1.5-0.9-2.3c-0.2-0.5-0.4-1.2-0.4-1.7c-0.1-3.8-0.1-7.7-0.1-11.3c0-3.7,0-7.4,0-11.1l0-4.8V153l-0.2,0   c0-0.7,0-1.4,0-2.1c0-3.8,0-7.7,0-11.6c0.1-5.8,0.4-11.5,1-16.9c0.2-2.2,0.2-4.3,0.2-6.1c0-9.4-0.1-19.5-0.2-32.6   c-0.1-17.2-0.2-31.4-0.3-44.7c0-3.3-0.1-6.7-0.2-9.6c0-0.9,0.2-1.7,0.6-2.5c0.6-1.1,1.1-2.4,1.4-3.7c0.4-1.6,1.1-2.8,2.2-3.9   c1.1-1,2.1-2,3.1-3c0.6-0.6,1.2-1.2,1.8-1.8c1.3-1.3,2.8-2.4,4.5-3.3c2-1.1,3.9-2.2,5.8-3.3c0.6-0.4,1.2-0.6,1.8-0.6   c0.6,0,1.2,0,1.8,0c0.7,0,1.4,0,2.1,0c0.6,0,1.1,0,1.5,0c0.3,0,0.6,0,1,0c2.6,0,4.7-0.5,6.5-1.6c0.4-0.2,0.9-0.3,1.9-0.3   c3.6,0,7.2-0.1,10.8-0.1c5.3,0,10.7-0.1,16-0.1c2.6,0,5.3,0,7.9,0l3.3,0l3.3,0c2.6,0,5.2,0,7.7,0c1.4,0,2.7-0.1,4-0.1   c1,0,1.9-0.1,2.8-0.1c2,0,4.1-0.1,6.1-0.1c2.5,0,5-0.1,7.4-0.2C599.2,4.6,599.4,4.6,599.5,4.6 M160.3,6.4c0.3,0,0.6,0.1,0.9,0.2   c1.6,0.8,3.4,1.2,5.1,1.2c0.4,0,0.9,0,1.3-0.1c0.1,0,0.2,0,0.3,0c0.6,0,1.3,0.2,2.2,0.7c1.9,1,3.8,1.9,5.6,2.8   c1.1,0.6,2.2,1.1,3.4,1.7c2.9,1.5,5,3.4,6.5,5.9c0.5,0.8,1,1.6,1.4,2.4l0.3,0.5c0.6,1,0.9,1.9,1,2.7c0,0.8,0.2,1.6,0.6,2.6   c1.5,4.5,1.8,9.4,1.8,13.5c0,0.2,0,0.5,0,0.6c-0.5,3.1-0.5,6.2-0.5,9.2l0,1.1c0.1,5.3,0.1,10.7,0.2,16c0.1,4.5,0.1,9,0.2,13.5   c0.1,7.8,0.2,17,0.2,26.3c0,5.7,0,11.4,0.1,17.1c0,7,0,14.2,0.1,21.3c0,4.2,0.1,8.5,0.2,12.7c0.1,2.9,0.1,5.9,0.2,8.8   c0,2.2,0,4.5,0,6.7c0,1.7,0,3.4,0,5.1c0,0.9,0.1,1.8,0.1,2.6c0,0.4,0,0.8,0.1,1.2l0.1,2.9c0.1,2.8,0.3,5.6,0.4,8.4   c0.1,1.5-0.2,2.7-0.7,3.7c-0.4,0.7-1,2.2-0.8,3.8c0.1,1-0.3,2-1.4,3.5c-1.6,2.1-3.6,4-6,5.6c-1,0.6-1.9,1.3-2.7,2   c-0.5,0.4-1,0.8-1.5,1.1c-0.3,0.3-0.7,0.5-1,0.8c-1.1,0.8-2.2,1.6-3.3,2.3c-0.8,0.5-1.8,0.7-2.9,0.7c-0.2,0-0.5,0-0.7,0   c-1.7-0.2-3.4-0.4-5.1-0.5c-2.1-0.2-4.3-0.5-6.5-0.7c-1.9-0.2-3.7-1-5.6-2.6c-1.8-1.5-3.7-3.3-4.8-5.7c-0.3-0.7-0.6-1.4-0.6-1.8   c0-5.3-2.4-9.6-4.5-13.2c-1.1-1.9-2.7-3.4-4.1-4.7l-0.1-0.1c-2.1-2-3.2-4.3-3.3-7.2c-0.1-1.3-0.4-2.6-1-4.1c-0.4-1-0.6-1.8-0.6-2.6   c-0.1-2.5-0.5-4.8-1.3-6.8c-0.2-0.6-0.3-1.4-0.3-2.3c0-0.9,0-1.7,0-2.7c0-0.9,0-1.8,0-2.7c-0.1-4-2.5-6.4-6.5-6.8   c-0.2,0-0.5,0-0.7,0c-0.2,0-0.5,0-0.7,0l-0.3,0l-3.3,0.1c-2.9,0.1-5.9,0.1-8.8,0.2l-2,0.1c-3.9,0.1-7.9,0.2-11.8,0.4   c-1,0-2,0.1-3,0.1c-4.1,0.2-8.4,0.4-12.6,0.4c-0.6,0-1.2,0-1.9,0l-0.3,0c-1,0-2,0.1-3,0.2c-0.7,0.1-1.4,0.1-2,0.1   c-0.7,0-1.4,0-2.1,0c-0.8,0-1.6,0-2.3-0.1c-0.6,0-1.3-0.1-2-0.1c-1.1,0-2.7,0.1-4.4,0.6c-0.1,0-0.3,0.1-0.4,0.1   c-0.4,0-1-0.2-1.7-0.5c-0.1,0-0.1-0.1-0.2-0.1l-0.1-0.1c-1.2-0.9-2.5-1.4-3.8-1.5c-1,0-2,0.3-2.9,0.9c-2,1.2-2.9,3.5-2.6,6.1   c0,0.2,0.1,0.5,0.1,0.7c0.2,1.6,0.4,3.5,1.6,5.4c0.3,0.5,0.3,1.4,0.3,2.4l0,0.1c0,1.6,0,3.1,0,4.7c0,1,0,2,0,3   c0,2.1,0.2,4.4,1.8,6.5c0.1,0.2,0.1,0.8,0.1,1.2l0,0.1c0,2.2,0,4.4,0,6.7c0,3.4,0,6.7,0.1,10.1c0,1.4-0.2,2.3-0.6,3.2   c-0.4,0.8-0.6,1.6-0.7,2.2c0,0.2-0.1,0.4-0.1,0.5c-0.1,0.3-0.2,0.7-0.2,1c-0.1,0.3-0.1,0.7-0.2,0.9c-1.4,2.8-2.6,5.2-4.4,7.4   c-0.3,0.3-0.5,0.7-0.8,1c-0.6,0.7-1.1,1.4-1.7,2c-1.1,1.1-2.3,2.2-3.8,3.3c-0.5,0.4-1,0.6-1.7,0.6c-0.2,0-0.3,0-0.5,0   c-0.1,0-0.1,0-0.2,0c-0.3,0-0.7-0.1-1.2-0.1c-0.3,0-0.7,0-1,0.1c-0.6,0.1-1.1,0.2-1.7,0.2c-2.2,0-4.4-0.8-6.8-1.7   c-0.8-0.3-1.7-0.8-2.6-1.5c-1.9-1.5-4-2.8-5.9-4c-1-0.6-1.9-1.2-2.9-1.8c-3.1-2-5.4-4.1-7.2-6.4c-1.7-2.2-2.7-4.9-2.9-8.1   c-0.4-5-0.5-9.1-0.3-12.9c0.1-2.9,0-5.8-0.1-8.6c0-1.2-0.1-2.5-0.1-3.7c0-1.7-0.1-3.4-0.1-5.1c-0.1-4-0.2-8.2-0.3-12.3   c0-5.2,0-10.6,0-15.8c0-2.3,0-4.5,0-6.8l0-3h0l0-4.3c0-5.6,0-11.1,0-16.7l0-1.8c0-7.3,0-14.8-0.1-22.2c-0.1-5.9,0.4-11.9,0.8-17.6   l0-0.5c0.1-0.7,0.1-1.4,0.1-2.2c0.1-2.7,0.1-5.4,0.2-8.1c0.1-6,0.3-12.2,0.5-18.4c0-0.6,0-1.2,0.1-1.9c0.1-3,0.2-5.8,0.8-8.5   c0.3-1.2,0.3-2.4,0.3-3.4c0-0.5,0-1,0.1-1.4l0.1-0.8c0.1-1.3,0.2-2.6,0.4-3.7c0.2-1,0.6-1.8,1.2-2.4c0.7-0.7,1.4-1.4,2.1-2.2   c0.6-0.6,1.2-1.2,1.8-1.9c0.5-0.5,0.8-0.5,1.1-0.5l0.1,0c0.2,0,0.3,0,0.5,0c1.9,0,3.8-0.5,5.9-1.4c1.4-0.6,2.8-1.2,4.2-1.7   c1.9-0.7,3.7-1,5.3-1c2.7,0,5.1,0.9,7.3,2.7c0.2,0.2,0.4,0.4,0.7,0.7c0.2,0.2,0.4,0.5,0.6,0.7c0.3,0.3,0.5,0.6,0.8,0.8   c0.7,0.7,1.3,1.5,2.1,2.2c3,2.7,5.3,6.1,6.9,10.3c1.7,4.3,2.4,7.7,2.3,11c-0.1,4.1-0.1,8.2,0,12.2c0,2,0.1,4.1,0.1,6.1   c0,2.6,0.5,4.9,1.5,6.9l0.1,0.2c0,0.1,0.1,0.1,0.1,0.2c0.2,3.2,1.6,5.8,2.8,8l0.2,0.4c0.6,1.1,0.7,1.9,0.4,2.9   c-0.3,1-0.4,1.9-0.4,2.7c0.1,5.4,3.1,7,5.7,7.8c2.9,0.9,5.9,1.3,9.2,1.3c0.7,0,1.5,0,2.2-0.1c3.9-0.2,7.6-0.3,11.2-0.3   c1.7,0,3.5,0.1,5.2,0.1c1.8,0.1,3.6,0.1,5.4,0.1c0.6,0,1.2,0,1.8,0c1.3,0,2.5-0.1,3.8-0.1c4.1-0.1,8.4-0.1,12.7-0.9   c1.8-0.3,3.6-0.5,5.5-0.6l1.1-0.1c2.4-0.2,4.5-1,6.2-2.5c0.4-0.4,0.8-0.7,1.3-1c0.7-0.6,1.5-1.2,2.2-1.9c3-2.8,4.4-6,4.4-9.6   c0-3,0-6.1,0-9c0-1.2,0-2.3,0-3.5c0-1,0-2,0-3c0-2.4,0-5,0.1-7.4c0.1-2.6,0.4-5.2,0.7-7.8l0-0.4c0.3-3,0.7-6.3,0.3-9.8   c-0.1-0.8,0-1.6,0.4-2.4c0.4-0.7,0.7-1.5,1-2.2c0.4-0.9,0.8-1.7,1.2-2.6c0.2-0.3,0.5-0.9,0.7-1.2c0.9-1,1.8-2,2.7-2.9   c2.4-2.7,4.6-5.2,7.2-7.4c1.8-1.5,4.1-2.3,6.6-3.2l0.1-0.1C159.9,6.4,160.1,6.4,160.3,6.4 M1581.6,9.7L1581.6,9.7   c1.5,0,2.7,0.4,3.7,1.4c0.3,0.3,0.7,0.6,1,0.9c2.2,1.9,4.3,3.8,5.8,6l0.5,0.7c1.3,2,2.6,3.8,3.4,5.8c0.8,1.9,1.1,4,0.8,6.1   c-0.6,4.3-0.5,8.5-0.3,12.5l0,0.1c0.1,2.1,0,3.9-0.7,5.5c-0.4,0.9-0.5,1.7-0.6,2.4c0,0.1,0,0.3-0.1,0.4c-0.3,1.5-1.7,2.9-3.1,3   c-0.2,0-0.5,0-0.9,0c-0.2,0-0.4,0-0.7,0c-0.2,0-0.5,0-0.7,0c-0.2,0-0.5,0-0.7,0c-0.3,0-0.6,0-1,0c-0.2,0-0.4,0-0.6,0   c-4.5,0.2-7,2.6-7.2,7.2l0,0.4c-0.1,1-0.1,2-0.3,2.9c-0.2,1.2-0.9,2.3-1.9,3.4c-2.6,2.8-5,4.3-7.7,4.6c-2.9,0.4-5.9,1.2-9.6,2.7   c-3.3,1.3-6,1.9-8.5,1.9c-1,0-2-0.1-2.9-0.3l-0.3-0.1c-0.7-0.1-1.5-0.3-2.4-0.4c-0.2,0-0.4,0-0.6,0c-3.4,0-5.9,2-6.8,5.4   c-0.2,0.6-0.4,1.3-0.5,1.9c-0.2,0.7-0.4,1.4-0.6,2.1c0,0.2-0.1,0.3-0.1,0.5c-0.2,0.7-0.4,1.5-0.5,2.5c0,0.7,0,1.3,0,2   c-0.1,4.5-0.2,9.1,0.8,13.8c0.3,1.2,0.4,2.5,0.4,3.7c0.1,4.9,0.1,10,0,16.7c0,0.6-0.1,1.3-0.2,2.1c-0.1,0.4-0.1,0.7-0.1,1.1   c0,0.1,0,0.2-0.1,0.3c-0.1,0.4-0.2,0.8-0.2,1.4l0,3c-0.1,4.9-0.1,9.9-0.1,14.9c0,1.6,0.1,3.2,0.2,4.7c0,0.9,0.1,1.7,0.1,2.6   c0,0.2,0,0.5,0,0.8c0,0.3,0,0.6,0,0.9c0,0.5,0,1.1,0,1.6c-0.1,1.4-0.1,2.8,0,4.2c0.2,4.3,0.2,8.2,0,12c-0.1,1.6,0,3.2,0.1,4.7   c0.1,1,0.1,1.9,0.1,2.7l0,0.4c0,4.7,0.1,9.5-0.5,14.1c-0.1,0.5-0.2,1-0.3,1.4c-0.7,2-0.9,4.1-0.7,6.3c0.1,0.7,0.1,1.5,0.2,2.3   l0,0.6l0,0.1c0,0.1,0,0.2,0,0.3c0,0.3-0.1,0.7-0.1,0.9c0,0.2,0,0.4,0,0.5c-0.8,1.4-1.1,2.8-1.4,4c-0.3,1.3-0.5,2.1-1,2.6   c-2.3,2.1-4,2.9-6,2.9c-1.3,0-2.6,0.1-3.9,0.1c-1.3,0.1-2.6,0.1-3.9,0.1c-0.3,0-0.5,0-0.8,0c-3.3-0.1-6-0.8-8.1-2.4   c-0.1-0.1-0.3-0.2-0.4-0.3c-0.5-0.4-1.1-0.9-1.9-1.2c-1.2-0.5-2.3-1.5-3.5-3.3c-1.1-1.6-2.2-3.2-3.3-4.8l-0.8-1.2l-0.1-0.2   c0,0,0,0,0-0.1c-0.2-1.7-0.7-3.3-1.1-4.8c-0.5-1.9-1-3.6-1-5.3c0.2-7.8,0-15.8-0.1-22.5c-0.2-6.8-0.4-13.6-0.7-20.3l-0.1-3   c-0.2-3.7-0.3-7.3-0.5-11c-0.2-3.9-0.4-7.9-0.5-11.8c-0.3-6.7-0.5-13.5-0.7-20.1l-0.2-4.6l0-0.6c-0.1-1.7-0.1-3.4-0.1-5   c0.1-4.4-2.4-6.5-4.5-7.5c-2.8-1.4-5.1-3.8-7.3-6.1c-1-1.1-1.4-2.1-1.4-3.3c0-0.6,0-1.2-0.1-1.7c-0.3-4.1-2.1-6.3-6.3-7.4   c-1.3-0.3-2.5-0.4-3.7-0.4l-0.3,0l-1.6,0c-4.7,0-9.5,0.1-14.3,0.2c-0.2,0-0.3,0-0.5,0c-2,0-4-0.3-6.4-0.8c-0.8-0.2-1.8-0.6-2.8-2.7   c-0.4-0.7-0.6-1.6-0.8-2.5c-1-4-3.4-7-7-8.8c-3.3-1.7-6.1-4.3-9.1-7l-1-0.9c-0.1-0.1-0.4-0.4-0.8-1.5c-0.3-0.8-0.5-1.7-0.6-2.7   c0-0.2-0.1-0.5-0.1-0.7c-0.1-0.5-0.1-0.8-0.1-1c0.1-1.6,0.3-3.2,0.5-4.7l0.1-1l0-0.3c0-0.1,0-0.3,0-0.4c0.6-1.6,0.9-3.2,1.2-4.7   c0.2-0.8,0.3-1.6,0.5-2.3c0.7-2.7,1.8-6.2,4-8.9l0.6-0.7c0.5-0.6,0.9-1.1,1.3-1.6c0.8-0.9,1.8-1.5,3.1-2c1-0.3,2-0.7,3-1.1   c0.4-0.1,0.7-0.3,1.1-0.4c3.1-1.2,6.5-2.3,10.2-2.3c7.3,0,14.7-0.1,21.8-0.3c4.1-0.1,8.3-0.1,12.4-0.2c6.7-0.1,13.5-0.1,20-0.2   c3,0,5.9,0,8.9-0.1l3,0l0,0c1.6,0,3.2,0,4.8,0c2.6,0,5.2,0,7.8,0c3.9,0,7.1,0,10.1-0.1c7.4-0.2,15.2-0.4,25.5-0.5   c4.9,0,9.1-0.1,13.1-0.3C1581.4,9.7,1581.5,9.7,1581.6,9.7 M1068.2,13.8c3.3,0,5.6,1.5,7.5,4.7c1.7,3,3.2,6.4,4.5,10.5   c0.6,1.7,1.2,3.4,1.8,5c0.3,0.8,0.6,1.5,0.9,2.3c0.1,0.2,0.1,0.4,0.2,0.6c0.1,0.2,0.1,0.4,0.2,0.6c0.4,1.2,0.8,2.5,1.3,3.7   c0.1,0.2,0.1,0.4,0.2,0.6c0,0.1,0.1,0.2,0.1,0.3l0.8,2.2c0.8,2.3,1.7,4.7,2.5,7c0.4,1.2,0.8,2.4,1.3,3.6c0.4,1.1,0.8,2.3,1.2,3.4   c0.2,0.5,0.4,1.1,0.7,1.8c0.1,0.3,0.3,0.6,0.4,0.8c0,0.1,0.1,0.1,0.1,0.2c0.5,1.6,1,3.2,1.6,4.7l0.6,1.8l0.1,0.2   c0.1,0.3,0.2,0.6,0.3,1c0.3,0.7,0.6,1.4,1,2c0.6,1.3,1.2,2.5,1.6,3.7c0.6,2.2,1.5,4.4,2.3,6.4c0.7,1.7,1.3,3.3,1.9,5   c0.5,1.7,1.2,3.3,1.8,4.9c0.3,0.8,0.6,1.6,0.9,2.4c0.1,0.4,0.2,0.5,0.2,0.6c0.2,1.9,0.8,3.6,1.7,5c0,0,0,0,0,0   c0.3,2.8,1.4,5.1,2.4,7.1c0.4,0.7,0.7,1.5,1,2.2l0.2,0.5c0.3,0.8,0.6,1.5,0.8,2.2c0.9,3.3,1.8,5.9,2.8,8.3c0.4,0.9,0.7,1.8,1,2.5   c0.2,0.6,0.4,1.2,0.6,1.8l0.1,0.3c0.2,0.6,0.4,1.2,0.6,1.8l0.4,1.3c0.2,0.6,0.4,1.2,0.6,1.8c0.4,1.2,0.8,2.3,1.2,3.5   c0.1,0.3,0.2,0.6,0.3,0.7c0,0,0,0,0,0.1c0.2,1.7,0.8,3.2,1.8,4.8c0.6,2.2,1.2,4.4,1.8,6.6c0,0.4,0.1,1.3,0.8,2.1   c0.5,0.6,0.7,1.5,1,2.6c0.3,1.1,0.6,2.4,1.3,3.6c0.5,2.6,1.4,4.9,2.2,7.2c0.5,1.2,0.9,2.3,1.3,3.5c0.5,1.5,0.9,3,1.3,4.6   c0.3,1,0.5,1.9,0.8,2.9c0.2,0.7,0.5,1.4,0.7,2.1c0.1,0.2,0.2,0.5,0.2,0.7c0.1,0.2,0.2,0.4,0.2,0.5c0.7,2.5,1.5,5,2.2,7.5   c0,0.2,0.1,0.4,0.1,0.6c0.8,2.6,1.7,5.1,2.6,7.7c0.2,0.5,0.3,0.9,0.5,1.4l0.4,1c0.1,0.3,0.2,0.6,0.3,0.9c0.2,0.6,0.4,1.2,0.6,1.8   l0.1,0.4c0.2,0.7,0.4,1.3,0.4,1.8c0.1,1.8,0.4,3.4,1.1,5c0.2,0.6,0.4,1.3,0.5,2.1c0,0,0,0.1,0,0.1l0,0.3c0,0.2,0,0.4,0,0.5   c0,0.1,0,0.1,0,0.1c-0.1,0.5-0.2,1-0.4,1.5c-1,4.1-1.9,7.9-4.4,11c-2,2.5-4,4.2-6.2,5.2c-0.7,0.3-1.2,0.5-1.7,0.5   c-0.1,0-0.2,0-0.3,0c-1.6-0.2-3.3-0.3-5.1-0.3c-1.8,0-3.7,0.1-6.1,0.4c-0.3,0-0.6,0-1,0c-1.7,0-3.3-0.5-5.1-1.4   c-4.3-2.3-7.3-5.6-9.2-10.1c-0.6-1.5-1.1-3-1.5-4.4c-0.5-1.9-1.1-4.1-2.2-6c-2.8-4.9-6.6-5.9-9.3-5.9c-7.4,0-14.9,0.1-21.2,0.2   c-4.1,0.1-8.2,0.1-12.4,0.2c-2.9,0.1-5.9,0.1-8.8,0.1l-0.3,0c-0.7,0-1.3,0-1.8-0.1c-0.7-0.1-1.4-0.1-2.1-0.1   c-1.7,0-3.6,0.3-5.6,0.9c-0.2,0.1-0.3,0.1-0.5,0.2c-0.1,0-0.3,0.1-0.4,0.1c-3.8,0.2-7.7,0.4-11.5,0.4l0,0l0,0c-0.5,0-1.2-0.2-2-0.3   l-0.5-0.1c-1.5-0.3-2.8-1.1-3.9-2.5c-0.2-0.2-0.3-0.4-0.4-0.6c-0.3-0.4-0.7-1-1.2-1.5c-0.9-0.9-1.9-1.5-2.9-1.8   c-0.7-0.2-1.4-0.3-2-0.3c-1.6,0-2.7,0.7-3.2,1.3c-0.9,1-1.2,2.3-1.1,4c0.1,0.5-0.2,1.2-0.6,2.2c-0.6,1.4-1.1,2.9-1.5,4.3   c-0.3,1-0.6,1.9-0.9,2.8c-0.5,1.4-1.1,3-1.8,4.4c-1.1,2.3-2.2,4.2-3.2,5.9c-1.5,2.4-3.4,4.5-6,6.4c-1.4,1.1-2.9,1.7-4.7,2.1   c-1.6,0.3-3.1,0.5-4.5,0.5c-1.3,0-2.6-0.1-4-0.4c-3.2-0.6-6.2-1.7-9.3-2.8c-1.6-0.6-3.3-1.2-5.5-2.1c-1.9-0.8-3.4-2-4.4-3.6   c0-0.1-0.1-0.1-0.1-0.2c0.1-0.2,0.2-0.4,0.3-0.8c0.1-0.6,0.3-1.1,0.4-1.7c0.2-1.1,0.5-2.2,0.8-3.1c0.6-1.6,1.4-3.6,1.4-6   c0,0,0-0.1,0.1-0.4l1.1-3.9c1.2-4.2,2.4-8.6,3.6-12.8c0.9-3.2,1.9-6.5,3.2-10.6c0.6-1.9,1.2-3.8,1.8-5.6c0.7-2.1,1.5-4.3,2.1-6.5   c0.5-1.7,1-3.4,1.4-5c0.3-1,0.5-1.9,0.8-2.9c0.1-0.5,0.3-1,0.6-1.5l0-0.1l0-0.1c0.2-0.3,0.5-0.9,0.7-1.7c0.2-1.3,0.7-2.6,1.2-3.9   c0.2-0.5,0.4-1.1,0.6-1.6c0.5-1.3,0.9-2.7,1.2-4c0.5-1.8,1.1-3.5,1.7-5.2c0.5-1.3,0.9-2.7,1.3-4c0.2-0.6,0.3-1.2,0.5-1.8l0.8-2.4   c1.4-4.4,2.8-9,4.2-13.5c0.2-0.6,0.5-1.2,0.7-1.9c0.2-0.5,0.5-1.1,0.7-1.7c1-2.7,1.9-5.4,2.9-8l0.1-0.4c0.2-0.6,0.4-1.2,0.5-1.9   c0.2-1.1,0.6-2.2,1.1-3.5c0.6-1.3,1-2.7,1.4-4c0.2-0.7,0.4-1.3,0.6-1.9c0.5-1.3,1-2.7,1.4-4c1-2.7,2-5.5,2.9-8.4   c0.9-2.8,1.9-5.6,3.1-8.5l0.3-0.7c0.2-0.6,0.3-1.1,0.4-1.6c0-0.2,0.1-0.3,0.1-0.5c0.3-1.1,0.6-2.2,0.9-3.3c0.2-0.7,0.4-1.4,0.6-2.1   c0.3-0.9,0.6-1.8,1-2.8c0.2-0.3,0.6-1,0.6-2c0-0.9,0.4-1.8,0.9-2.9c0.3-0.8,0.7-1.6,1-2.6c0.3-0.9,0.7-1.9,1.2-2.9   c0.2-0.5,0.5-1,0.7-1.5c0.3-0.7,0.6-1.5,0.9-2.2c0.7-1.7,1.5-3.4,2.1-5.2c1-2.6,2-5.3,2.9-8c0.5-1.5,1.2-2.9,1.9-4.5l0.4-0.9   c1-2.1,2.5-3.8,4.4-5.8c2.7-2.8,6.3-4.2,9.8-5.3c0.1,0,0.3-0.1,0.4-0.1c0.4-0.1,1.1-0.2,1.7-0.5c2.3-1,4.9-1,7.7-1l0.2,0   c3.4,0,6.3-0.1,9.3-0.2c1.7-0.1,3.4-0.6,4.8-1c1.5-0.5,2.8-0.7,4.2-0.7l0.1,0c0.3,0,0.7,0,1,0c1.3,0,2.2,0,3.2-0.1   C1067.7,13.9,1067.9,13.8,1068.2,13.8 M1040.5,131.3l0.2,0l0.3,0c0.2,0,0.5,0,0.7,0c0.8,0,1.5,0,2,0.3c1.7,0.8,3.5,1.2,5.6,1.2   c0.3,0,0.7,0,1.1,0c0.3,0,0.7,0,1.2,0c0.3,0,0.7,0,1,0c0.4,0,0.7,0,1.1,0h3v-0.1c0.4,0,0.7,0,1,0c0.2,0,0.5,0,0.7,0   c2.6,0,5.1-0.8,7.7-2.6c2.4-1.6,3.1-4.2,2-6.7c-0.4-0.9-1-1.6-1.5-2.2c-0.7-0.9-1.3-1.8-1.7-2.8c-0.2-0.5-0.4-1.1-0.7-1.6   c-1-2.5-2.1-5-3.6-7.4c-0.2-0.3-0.4-0.7-0.6-1.1c-0.2-0.4-0.5-0.9-0.8-1.4c-0.4-0.7-0.6-1.4-0.6-2.2c0.1-2.8-1-5.3-3.2-7.1   c-0.3-0.2-0.5-0.5-0.9-0.8l-0.3-0.3c-1.7-1.7-3.9-2.7-6.1-2.7c-3.3,0-6.4,1.9-8,4.9c-1.5,2.9-2.6,6-3.6,8.8c-1,2.9-2.1,5.8-2.9,8   c-0.6,1.5-1,3-1.4,4.5c-0.3,0.9-0.5,1.8-0.8,2.7c-1,3.2,0.2,6,3.4,7.6C1036.6,130.9,1038.4,131.3,1040.5,131.3 M599.5,1.5   c-0.2,0-0.3,0-0.5,0c-4.5,0.1-9,0.2-13.5,0.3c-2.2,0.1-4.5,0.2-6.7,0.2c-2.6,0-5.2,0-7.7,0c-2.2,0-4.5,0-6.7,0c-2.6,0-5.3,0-7.9,0   c-8.9,0-17.9,0.1-26.8,0.2c-1.2,0-2.3,0.1-3.4,0.7c-1.6,0.9-3.3,1.2-5,1.2c-0.3,0-0.6,0-0.8,0c-0.6,0-1.1,0-1.7,0   c-1.3,0-2.6,0-3.9,0.1c-1.2,0-2.3,0.4-3.3,1c-1.9,1.1-3.8,2.2-5.7,3.2c-1.9,1-3.7,2.3-5.2,3.9c-1.6,1.6-3.1,3.2-4.8,4.8   c-1.6,1.5-2.6,3.3-3.1,5.4c-0.3,1-0.6,2.1-1.1,3c-0.7,1.3-1,2.6-0.9,4c0.1,3.2,0.2,6.4,0.2,9.5c0.1,14.9,0.2,29.8,0.3,44.7   c0.1,10.9,0.1,21.7,0.2,32.6c0,1.9,0,3.9-0.2,5.8c-0.6,5.7-0.9,11.5-1,17.2c-0.1,5.6,0,11.2,0,16.8c0.1,0,0.1,0,0.2,0   c0,5.3,0,10.6,0,15.8c0,3.8,0,7.6,0.1,11.4c0,0.9,0.3,1.8,0.6,2.7c0.7,1.7,1.5,3.4,2.1,5.2c0.7,2,1.3,4.1,2,6.2   c0.9,2.6,1.8,5.1,2.9,7.6c0.5,1.1,1.4,2.1,2.1,3.1c0.5,0.8,1.1,1.5,1.6,2.3c1.2,2.2,2.9,3.8,4.8,5.3c1.2,0.9,2.3,1.8,3.5,2.7   c1.6,1.2,3.3,2.3,5.5,2.4c0.8,0,1.6,0.5,2.5,0.7c1,0.2,2.1,0.6,3.2,0.6c1.8,0,3.6,0.1,5.4,0.1c1.6,0,3.3,0,4.9,0c0.1,0,0.2,0,0.2,0   c1,0,2,0.1,2.9,0.6c1.1,0.6,2.3,0.7,3.6,0.8c1.5,0,2.9,0.1,4.4,0.3c3,0.4,6,0.9,9,1.2c1.8,0.2,3.5,0.4,5.1,1.3   c0.7,0.4,1.5,0.6,2.3,0.6c0.4,0,0.9,0,1.3-0.1c1.8-0.3,3.5-0.4,5.3-0.5c3.4-0.1,6.8,0,10.2-0.1c1.1,0,2.2-0.2,3.2-0.6   c2-0.8,4.1-1.2,6.2-1.2c0.2,0,0.4,0,0.6,0c0.6,0,1.2,0,1.7,0c3.2,0,6.3-0.3,9.3-1.3c1-0.3,1.9-0.5,3-0.5c0.5,0,0.9,0,1.4,0.1   c0.5,0.1,0.9,0.1,1.3,0.1c1.3,0,2.5-0.4,3.6-0.9c1.5-0.7,2.9-1.4,4.3-2.3c1.3-0.8,2.7-1.3,4.2-1.3c0.1,0,0.3,0,0.4,0   c0.6,0,1.1,0,1.7,0c2.9,0,5.7-0.4,8.5-0.6c3.8-0.3,7.5-1.3,11.1-2.3c1.6-0.5,3-1.3,4.2-2.4c1.7-1.5,3.3-3.1,2.7-5.8   c-0.1-0.6,0.2-1.4,0.4-2c0.4-0.9,1-1.8,1.4-2.7c0.4-0.9,0.9-1.8,1.1-2.8c0.3-1.2,0.7-2.3,1.2-3.5c0.8-1.9,1.2-4,0-5.8   c-1.6-2.3-3.1-4.6-5.2-6.5c-2.3-2-4.4-4.2-6.6-6.2c-4.7-4.3-9.4-8.5-14.7-12.1c-2.4-1.6-5-2.8-8-2.8c-1.1,0-2.2-0.3-3.2-0.7   c-1.3-0.5-2.6-0.8-3.9-0.8c0,0-0.1,0-0.1,0c-3.9,0.1-7.8,0.1-11.6,0.3c-1.4,0.1-2.8,0.2-4.1,0.7c-1.9,0.7-3.9,1-5.9,1   c-0.7,0-1.4,0-2.2-0.1c-0.4,0-0.9,0-1.3,0c-0.5,0-1,0-1.5,0c-7.1,0.1-14.3,0.2-21.4,0.3c-2.3,0-4.6,0.2-6.9,0.2c-0.1,0-0.2,0-0.3,0   c-1,0-2-0.2-2.9-0.5c-1.3-0.5-1.9-1.7-1.6-3c0.1-0.6,0.3-1.2,0.6-1.7c1.1-2,2.2-3.9,3.4-5.8c0.3-0.5,0.6-0.9,1-1.3   c1.7-1.7,3.6-2.5,6.1-2.5c6.6,0,13.2-0.2,19.8-0.2c1.2,0,2.5,0,3.8,0c2.3,0,4.5,0.1,6.7,0.5c1.2,0.2,2.4,0.3,3.6,0.3   c3.6,0,7.2-0.9,10.8-1.1c0.4,0,0.9-0.3,1.3-0.5c1.6-0.8,3.3-1,5-1c0.3,0,0.6,0,0.9,0c1,0,2,0.1,3,0.1c0.3,0,0.7,0,1,0   c1.2,0,2.3-0.3,3.2-1.1c2.5-2.1,4.8-4.5,6.6-7.2c1.1-1.6,1.5-3.3,1.3-5.3c-0.2-2.2-0.3-4.5-0.3-6.7c0.2-7.1,0.4-14.1,0.2-21.2   c-0.1-1.8-0.5-3.5-1.1-5.2c-1.1-2.7-2.8-5-4.7-7.2c-1.3-1.6-3-2.7-5.2-2.7c-1.2,0-2.2-0.5-3.3-1c-4.1-1.8-8.1-3.8-12.6-3.8   c-0.5,0-1,0-1.6,0.1c-0.1,0-0.2,0-0.3,0c-0.1,0-0.3,0-0.4-0.1c-2.6-1.2-5.5-1.6-8.2-2.3c-0.2-0.1-0.4-0.2-0.6-0.3   c-1-0.5-2-0.6-3-0.6c-0.2,0-0.4,0-0.6,0c-3.8,0.2-7.6,0.3-11.4,0.5c-0.2,0-0.5,0-0.7,0c-1.7,0-3.4-0.3-5-1   c-1.3-0.6-2.7-0.8-4.1-0.8c-0.2,0-0.3,0-0.5,0c-1,0-1.9,0.2-2.9,0.2c-0.1,0-0.3,0-0.4,0c-1.5-0.1-2.9-0.2-4.4-0.4   c-1.4-0.2-2.7-0.7-4-1c-2.9-0.6-3.8-1.7-3.5-4.6c0.1-0.7,0.3-1.4,0.5-2c0.5-1.4,1.6-2.3,3.1-2.5c0.5,0,1-0.1,1.5-0.1   c0.4,0,0.8,0,1.2,0.1c6,0.6,12.1,0.8,18.1,1c1.2,0,2.5,0,3.7,0.2c2.9,0.3,5.7,0.4,8.6,0.4c1.3,0,2.5,0,3.8,0c0.4,0,0.9,0,1.3,0   c0.1,0,0.3,0,0.4,0c4.3,0,8.5-0.5,12.8-1c1.9-0.3,3.9-0.3,5.8-0.4c1.7-0.1,3.4-0.3,5-1.1c0.5-0.3,1.2-0.5,1.8-0.5   c4.1-0.5,7.4-2.6,10.7-4.9c3.1-2.2,5.8-4.9,8.3-7.8c0.4-0.5,0.8-0.9,1.1-1.5c1.4-2.3,2.7-4.7,4.2-7c1.3-2,2.6-4.1,4.1-5.9   c3.2-3.9,4.5-8.4,4.6-13.3c0-3-1.4-5.3-3.5-7.1c-2.3-1.9-4.9-3.5-7.4-5.3c-1.3-0.9-2.5-1.8-3.7-2.8c-1.6-1.4-3.2-2.6-5.3-3.3   c-0.7-0.2-1.3-0.6-1.9-0.9c-2.6-1.5-5.5-2.2-8.3-2.9c-1-0.3-2.1-0.5-3.1-0.9c-2.8-1-5.4-2.3-8.4-2.7c-0.4-0.1-0.7-0.2-1.1-0.4   C602.3,1.7,600.9,1.5,599.5,1.5L599.5,1.5z M160.3,3.3c-0.5,0-1,0.1-1.6,0.3c-2.7,0.9-5.4,1.9-7.7,3.8c-3.8,3.2-6.8,7-10.2,10.5   c-0.5,0.6-0.9,1.3-1.2,2c-0.8,1.6-1.5,3.2-2.3,4.9c-0.6,1.3-0.9,2.6-0.7,4.1c0.4,3,0,6-0.3,9.1c-0.3,2.8-0.6,5.6-0.7,8.3   c-0.1,3.5-0.1,7-0.1,10.5c0,4.2-0.1,8.4-0.1,12.6c0,3-1.3,5.4-3.4,7.4c-1.1,1-2.3,1.9-3.4,2.8c-1.3,1.1-2.8,1.6-4.5,1.8   c-2.3,0.2-4.7,0.4-6.9,0.8c-5.3,0.9-10.7,0.7-16,0.9c-0.6,0-1.1,0-1.7,0c-3.5,0-7.1-0.3-10.6-0.3c0,0,0,0,0,0   c-3.8,0-7.6,0.1-11.4,0.4c-0.7,0-1.4,0.1-2.1,0.1c-2.8,0-5.6-0.4-8.3-1.2c-2.2-0.7-3.5-1.7-3.6-5c0-0.6,0.1-1.2,0.3-1.8   c0.5-1.8,0.2-3.5-0.7-5.1c-1.3-2.3-2.6-4.6-2.7-7.4c0-0.4-0.3-0.9-0.5-1.3c-0.8-1.8-1.2-3.7-1.2-5.6c0-6.1-0.2-12.1-0.1-18.2   c0.1-4.3-1-8.3-2.5-12.2c-1.7-4.4-4.2-8.3-7.7-11.5c-1-0.9-1.8-1.9-2.7-2.9c-0.5-0.6-1-1.2-1.6-1.7c-2.9-2.4-6-3.4-9.2-3.4   c-2,0-4.2,0.4-6.3,1.2c-1.5,0.5-3,1.1-4.5,1.8c-1.5,0.7-3,1.1-4.6,1.1c-0.1,0-0.2,0-0.3,0c-0.1,0-0.1,0-0.2,0   c-1.3,0-2.4,0.5-3.3,1.5c-1.3,1.4-2.6,2.7-3.9,4c-1,1.1-1.6,2.5-1.9,3.9c-0.3,1.6-0.4,3.2-0.6,4.8c-0.1,1.5,0,3-0.3,4.4   c-0.8,3.6-0.8,7.3-0.9,10.9C7.8,48.3,7.7,57.1,7.4,66c0,0.9-0.1,1.7-0.2,2.6c-0.4,6-0.9,11.9-0.8,17.9c0.1,8,0.1,16,0.1,24   c0,8,0,16,0,24c0,0,0,0,0.1,0c0,7.5,0,15.1,0,22.6c0.1,5.8,0.2,11.6,0.4,17.5c0.1,4,0.4,8.1,0.2,12.1c-0.2,4.4,0,8.9,0.4,13.3   c0.3,3.5,1.3,6.8,3.6,9.7c2.2,2.9,4.9,5.1,7.9,7.1c2.8,1.9,5.9,3.4,8.6,5.6c1,0.8,2.2,1.5,3.4,2c2.5,1,5.1,1.9,7.8,1.9   c0.8,0,1.6-0.1,2.4-0.2c0.1,0,0.2,0,0.4,0c0.3,0,0.7,0.1,1,0.1c0.3,0,0.6,0.1,0.9,0.1c1.3,0,2.5-0.4,3.5-1.2c1.4-1.1,2.8-2.2,4-3.5   c1-1,1.8-2.1,2.7-3.2c2-2.4,3.4-5.2,4.8-8c0.4-0.7,0.4-1.6,0.6-2.5c0.2-0.7,0.3-1.5,0.6-2.2c0.7-1.4,0.9-3,0.9-4.5   c0-5.6-0.1-11.2-0.1-16.8c0-1.1,0-2.2-0.7-3.1c-1.1-1.4-1.2-3-1.2-4.6c0-2.6,0-5.1,0-7.7c0-1.4,0-2.9-0.7-4.1c-1-1.5-1-3.2-1.2-4.9   c-0.2-1.2,0.1-2.4,1.2-3.1c0.4-0.3,0.9-0.4,1.3-0.4c0.7,0,1.3,0.3,1.9,0.8c0.2,0.2,0.5,0.4,0.8,0.5c1,0.5,2.1,0.9,3.1,0.9   c0.5,0,0.9-0.1,1.4-0.2c1.2-0.4,2.3-0.5,3.5-0.5c0.6,0,1.2,0,1.8,0.1c0.8,0,1.6,0.1,2.5,0.1c0.7,0,1.5,0,2.2,0   c1.6,0,3.3-0.3,4.9-0.3c0.1,0,0.2,0,0.2,0c0.6,0,1.3,0,1.9,0c5.3,0,10.5-0.3,15.8-0.5c4.6-0.2,9.2-0.3,13.7-0.4   c4-0.1,8.1-0.2,12.1-0.3c0.3,0,0.6,0,0.9,0c0.1,0,0.3,0,0.4,0c2.5,0.2,3.6,1.3,3.7,3.9c0.1,1.8,0,3.6,0.1,5.4   c0,1.1,0.1,2.2,0.5,3.2c0.7,1.9,1,3.9,1.1,5.9c0.1,1.3,0.4,2.4,0.9,3.6c0.4,1,0.7,2.1,0.8,3.1c0.2,3.7,1.6,6.7,4.3,9.3   c1.3,1.3,2.8,2.6,3.7,4.2c2.2,3.6,4.1,7.3,4.1,11.7c0,1.1,0.4,2.1,0.9,3.1c1.3,2.8,3.4,4.9,5.6,6.8c2.1,1.8,4.4,3.1,7.3,3.3   c3.9,0.3,7.7,0.8,11.6,1.2c0.3,0,0.6,0,1,0c1.6,0,3.1-0.4,4.4-1.2c1.6-1,3.1-2.1,4.6-3.2c1.4-1,2.7-2.1,4.1-3   c2.6-1.7,4.9-3.8,6.8-6.3c1.2-1.6,2.2-3.4,2-5.6c-0.1-0.7,0.2-1.6,0.5-2.2c0.8-1.7,1.1-3.4,1-5.2c-0.2-3.8-0.3-7.6-0.5-11.4   c-0.1-1.2-0.2-2.5-0.2-3.7c0-4,0-7.9,0-11.9c-0.1-7.1-0.3-14.3-0.3-21.4c-0.1-12.8-0.1-25.6-0.1-38.4c0-8.8-0.1-17.5-0.2-26.3   c-0.1-9.9-0.3-19.7-0.4-29.6c0-3.3-0.2-6.5,0.4-9.8c0.1-0.4,0.1-0.8,0.1-1.2c-0.1-4.9-0.4-9.8-2-14.4c-0.2-0.6-0.4-1.2-0.4-1.8   c-0.1-1.5-0.6-2.9-1.4-4.1c-0.6-0.9-1.1-1.8-1.7-2.8c-1.8-3.2-4.5-5.5-7.8-7.1c-3-1.5-6-3-8.9-4.5c-1.1-0.6-2.3-1-3.6-1   c-0.2,0-0.4,0-0.7,0c-0.3,0-0.7,0.1-1,0.1c-1.3,0-2.5-0.3-3.8-0.9C161.9,3.5,161.1,3.3,160.3,3.3L160.3,3.3z M1581.6,6.6   c-0.1,0-0.3,0-0.4,0c-4.3,0.2-8.7,0.3-13,0.3c-8.5,0.1-17.1,0.2-25.6,0.5c-3.3,0.1-6.7,0.1-10,0.1c-5.2,0-10.4-0.1-15.6-0.1   c0,0,0,0,0,0c-9.6,0.1-19.3,0.1-28.9,0.2c-11.4,0.1-22.8,0.4-34.2,0.4c-4,0-7.6,1.1-11.3,2.5c-1.3,0.5-2.6,1.1-3.9,1.5   c-1.7,0.6-3.2,1.5-4.4,2.9c-0.7,0.8-1.3,1.5-1.9,2.3c-2.4,2.9-3.7,6.5-4.6,10.1c-0.6,2.2-0.7,4.6-1.6,6.8c-0.2,0.4-0.2,0.9-0.2,1.4   c-0.2,1.9-0.5,3.9-0.6,5.8c-0.1,0.6,0,1.2,0.1,1.8c0.3,1.3,0.5,2.6,0.9,3.8c0.4,1,0.9,2.1,1.6,2.7c3.4,3.1,6.7,6.3,10.8,8.4   c2.9,1.5,4.6,3.8,5.5,6.9c0.3,1,0.6,2.1,1.1,3.1c1,2.1,2.5,3.8,4.9,4.3c2.3,0.5,4.6,0.9,7,0.9c0.2,0,0.4,0,0.6,0   c5.3-0.1,10.6-0.2,15.8-0.2c0.1,0,0.2,0,0.3,0c1,0,2,0,2.9,0.3c2.9,0.8,3.8,1.8,4,4.7c0,0.5,0.1,0.9,0,1.4   c-0.1,2.2,0.8,3.9,2.2,5.5c2.4,2.6,4.9,5.2,8.2,6.8c2,1,2.8,2.5,2.7,4.7c-0.1,1.9,0,3.9,0.1,5.8c0.3,8.2,0.5,16.4,0.9,24.7   c0.3,7.6,0.7,15.2,1,22.8c0.3,7.8,0.7,15.5,0.8,23.3c0.2,7.5,0.3,14.9,0.1,22.4c-0.1,3.8,1.8,7.2,2.1,10.9c0,0.4,0.4,0.8,0.6,1.2   c1.4,2.1,2.7,4.1,4.2,6.2c1.3,1.8,2.7,3.4,4.8,4.3c0.6,0.3,1.2,0.8,1.7,1.2c2.9,2.1,6.3,2.9,9.8,3c0.3,0,0.6,0,0.8,0   c2.6,0,5.2-0.2,7.8-0.2c3.3,0,5.7-1.6,8-3.7c2.2-2,1.6-5.1,3-7.4c0.4-0.7,0.3-1.6,0.4-2.5c0-0.3,0-0.6,0-0.9c-0.1-1-0.1-2-0.2-3   c-0.2-1.7,0-3.4,0.5-5c0.2-0.7,0.4-1.3,0.4-2c0.6-4.9,0.5-9.9,0.5-14.9c0-2.4-0.4-4.8-0.3-7.2c0.3-4.1,0.3-8.2,0-12.3   c-0.1-1.9,0-3.7,0.1-5.6c0-0.6,0.1-1.2,0.1-1.9c-0.1-2.4-0.3-4.8-0.3-7.2c0-6,0.1-11.9,0.1-17.9c0-0.5,0.1-0.9,0.2-1.4   c0.1-1.2,0.4-2.3,0.4-3.5c0-5.6,0.1-11.2,0-16.8c0-1.5-0.2-3-0.5-4.4c-1.1-5-0.8-10-0.7-15.1c0-0.8,0.3-1.5,0.5-2.3   c0.4-1.4,0.7-2.7,1.1-4c0.5-2,1.8-3.1,3.8-3.1c0.1,0,0.3,0,0.4,0c0.8,0.1,1.5,0.2,2.3,0.4c1.2,0.2,2.4,0.4,3.6,0.4   c3.3,0,6.5-0.9,9.6-2.1c2.9-1.2,5.8-2.1,8.9-2.5c4-0.5,7-2.7,9.6-5.6c1.3-1.4,2.2-3,2.6-4.9c0.2-1.2,0.3-2.5,0.3-3.7   c0.2-3,1.3-4.2,4.3-4.3c0.1,0,0.3,0,0.4,0c0.6,0,1.1,0,1.7,0c0.5,0,0.9,0,1.4,0c0.4,0,0.8,0,1.2,0c2.8-0.3,5.4-2.7,5.8-5.5   c0.1-0.7,0.2-1.4,0.5-2c1-2.2,1-4.5,1-6.8c-0.1-4-0.2-8.1,0.3-12.1c0.4-2.7,0-5.4-1.1-7.8c-1.1-2.5-2.7-4.7-4.2-7   c-2-2.9-4.7-5.2-7.3-7.5C1585.7,7.3,1583.8,6.6,1581.6,6.6L1581.6,6.6z M1068.2,10.8c-0.3,0-0.7,0-1,0c-1,0.1-2,0.1-2.9,0.1   c-0.3,0-0.7,0-1,0c0,0-0.1,0-0.1,0c-1.8,0-3.5,0.3-5.1,0.8c-1.3,0.4-2.7,0.8-4.1,0.9c-3,0.2-6,0.2-9.1,0.2c-3.1,0-6.2,0-9.1,1.3   c-0.6,0.2-1.2,0.3-1.8,0.5c-4.1,1.3-8,2.9-11.1,6.1c-1.9,2-3.8,4-5,6.6c-0.9,1.9-1.8,3.7-2.5,5.7c-0.9,2.7-1.8,5.3-2.8,7.9   c-1,2.5-2,4.9-3.1,7.3c-0.7,1.6-1.5,3.1-1.9,4.7c-0.6,2.1-2,4-2.1,6.4c0,0.3-0.3,0.6-0.4,0.8c-0.4,1-0.7,2-1.1,3.1   c-0.2,0.7-0.5,1.5-0.7,2.2c-0.3,1.1-0.6,2.2-0.9,3.4c-0.2,0.6-0.2,1.2-0.5,1.8c-1.2,3.1-2.4,6.2-3.4,9.4c-1.3,4.1-2.9,8.2-4.3,12.3   c-0.7,1.9-1.2,3.9-2,5.7c-0.6,1.4-1.1,2.7-1.3,4.2c-0.1,0.5-0.2,0.9-0.4,1.3c-1,2.8-2,5.5-3,8.3c-0.5,1.2-1,2.4-1.4,3.7   c-1.7,5.3-3.3,10.7-5,16c-0.6,1.9-1,3.8-1.7,5.6c-1.2,3-1.9,6.2-3,9.3c-0.7,2-1.6,4-1.9,6.2c-0.1,0.4-0.3,0.7-0.5,1.1   c-0.3,0.6-0.5,1.3-0.7,2c-0.7,2.6-1.4,5.2-2.2,7.8c-1.3,4.1-2.7,8.1-4,12.1c-1.1,3.5-2.2,7.1-3.3,10.7c-1.6,5.6-3.1,11.2-4.7,16.8   c-0.1,0.4-0.2,0.8-0.2,1.1c0,1.7-0.6,3.3-1.2,4.9c-0.6,1.6-0.9,3.4-1.3,5.2c0,0.1-0.1,0.1-0.1,0.2c-0.5,1.1-0.4,2,0.3,3.1   c1.4,2.3,3.4,3.8,5.8,4.8c1.9,0.8,3.7,1.5,5.6,2.2c3.2,1.1,6.4,2.2,9.8,2.9c1.5,0.3,3,0.4,4.5,0.4c1.7,0,3.4-0.2,5.1-0.5   c2.2-0.4,4.1-1.3,5.9-2.6c2.7-2,5-4.4,6.8-7.3c1.2-2,2.3-4,3.3-6.1c0.8-1.5,1.4-3.1,1.9-4.7c0.8-2.3,1.5-4.7,2.4-7   c0.5-1.2,0.9-2.3,0.8-3.6c-0.1-1.4,0.3-2,1.3-2c0.3,0,0.7,0.1,1.2,0.2c0.6,0.1,1.1,0.6,1.5,1c0.5,0.5,0.9,1.2,1.4,1.8   c1.5,1.8,3.3,3,5.6,3.5c1,0.2,2.1,0.5,3.1,0.5c0,0,0.1,0,0.1,0c3.9-0.1,7.7-0.3,11.6-0.4c0.5,0,1.1-0.3,1.6-0.4   c1.6-0.5,3.1-0.8,4.7-0.8c0.6,0,1.1,0,1.7,0.1c0.7,0.1,1.5,0.1,2.2,0.1c0.1,0,0.2,0,0.4,0c7.1-0.1,14.1-0.3,21.2-0.3   c7.1-0.1,14.1-0.2,21.2-0.2c0,0,0,0,0,0c3.1,0,5.2,1.9,6.7,4.4c0.9,1.6,1.4,3.4,1.9,5.2c0.4,1.7,0.9,3.3,1.6,4.8   c2.1,5.2,5.7,9.1,10.6,11.6c2.1,1.1,4.2,1.8,6.5,1.8c0.4,0,0.8,0,1.3-0.1c1.9-0.2,3.9-0.3,5.8-0.3c1.6,0,3.1,0.1,4.7,0.3   c0.3,0,0.5,0.1,0.8,0.1c1.1,0,2.1-0.3,3.1-0.8c2.9-1.4,5.2-3.6,7.3-6.1c3.2-4,4.2-8.9,5.4-13.7c0.1-0.4,0-0.8,0.1-1.2   c0.1,0,0.1,0,0.2,0c-0.3-1.3-0.5-2.6-0.9-3.8c-0.5-1.3-0.8-2.6-0.9-4.1c0-1-0.4-2-0.6-2.9c-0.3-1-0.6-1.9-0.9-2.9   c-0.3-0.8-0.5-1.6-0.8-2.4c-0.9-2.6-1.7-5.1-2.6-7.7c0-0.1,0-0.2,0-0.2c-0.8-2.7-1.6-5.3-2.3-8c0-0.1-0.2-0.3-0.2-0.4   c-0.3-0.9-0.6-1.7-0.9-2.6c-0.7-2.5-1.4-5.1-2.2-7.6c-1.1-3.5-2.8-6.9-3.5-10.6c0-0.1-0.1-0.3-0.2-0.4c-1.3-2.1-1.1-4.9-2.7-6.9   c-0.2-0.2-0.1-0.6-0.2-0.9c-0.6-2.3-1.3-4.6-1.9-6.9c0-0.1-0.1-0.3-0.2-0.4c-0.8-1.2-1.3-2.5-1.4-3.9c0-0.4-0.3-0.9-0.5-1.3   c-0.4-1.2-0.8-2.3-1.2-3.5c-0.2-0.6-0.4-1.2-0.6-1.8c-0.3-1-0.7-2.1-1-3.1c-0.2-0.7-0.5-1.5-0.8-2.2c-0.3-0.9-0.6-1.7-1-2.6   c-1.1-2.6-1.9-5.2-2.6-7.9c-0.3-1-0.7-2-1.2-3c-1.2-2.8-3-5.4-3.2-8.6c0-0.4-0.2-0.7-0.4-1.1c-0.7-1.1-1.1-2.4-1.2-3.7   c0-0.5-0.2-0.9-0.4-1.3c-0.9-2.4-1.9-4.7-2.7-7.2c-1.2-3.8-3-7.4-4.2-11.3c-0.6-2.1-1.8-4.1-2.7-6.2c-0.1-0.3-0.2-0.6-0.3-0.9   c-0.7-2.2-1.4-4.4-2.2-6.6c-0.1-0.4-0.5-0.8-0.6-1.2c-0.2-0.5-0.4-1-0.6-1.5c-0.8-2.3-1.6-4.7-2.5-7c-1.1-3.1-2.2-6.1-3.3-9.2   c-0.1-0.3-0.2-0.6-0.3-0.9c-0.4-1.2-0.8-2.5-1.3-3.7c-0.1-0.4-0.3-0.9-0.4-1.3c-0.9-2.4-1.9-4.8-2.7-7.2c-1.2-3.8-2.7-7.6-4.7-11.1   C1076,13.1,1072.7,10.8,1068.2,10.8L1068.2,10.8z M1040.5,128.3c-1.4,0-2.8-0.2-4.1-0.9c-1.7-0.9-2.5-2.1-1.9-4   c0.8-2.3,1.3-4.8,2.2-7c1-2.7,2-5.3,2.9-8c1-2.9,2-5.7,3.4-8.4c1-1.9,3.1-3.2,5.3-3.2c1.4,0,2.8,0.5,3.9,1.8   c0.4,0.4,0.9,0.9,1.3,1.3c1.5,1.2,2.2,2.8,2.1,4.7c0,1.4,0.3,2.6,1,3.8c0.5,0.9,0.9,1.8,1.4,2.7c1.7,2.7,2.8,5.7,4.1,8.6   c0.6,1.3,1.3,2.5,2.2,3.6c0.4,0.5,0.8,1,1,1.5c0.6,1.3,0.3,2.2-0.9,3c-1.8,1.2-3.8,2.1-6,2.1c-0.2,0-0.4,0-0.6,0   c-0.5,0-1.1,0-1.6,0c-0.9,0-1.7,0-2.6,0c0,0,0,0.1,0,0.1c-0.7,0-1.4,0-2.2,0c-0.4,0-0.9,0-1.3,0c-0.3,0-0.6,0-0.9,0   c-1.5,0-2.9-0.2-4.3-0.9c-1-0.5-2.2-0.6-3.3-0.6c-0.4,0-0.7,0-1.1,0C1040.6,128.3,1040.6,128.3,1040.5,128.3L1040.5,128.3z"/>
</g>
<path class="st2" d="M1331.7,293.2c0.6,0,1.2-0.1,1.8-0.1c2.5,0.1,5,0.2,7.4-0.2c0.5-0.1,1.1-0.2,1.6-0.1c4.7,0.7,9.4-0.2,14.2,0  c1.4,0.1,2.8,0,4.2,0c0.7,0,1.5,0.1,2.2-0.5c-0.3-0.8-1-0.8-1.5-0.9c-2.2-0.1-4.3-0.6-6.5-0.1c-0.9,0.2-1.9,0-2.8-0.1  c-2.9-0.3-5.7-0.5-8.6,0.3c-0.6,0.2-1.4,0.1-2.1,0c-1.5-0.2-2.9-0.6-4.4-0.7c-0.8-0.1-1.7,0.1-2.5,0.2c-0.7,0.1-1.4,0.4-2,0.4  c-2.5-0.1-4.9-0.3-7.4-0.5c-0.9-0.1-1.8-0.1-2.8,0c-0.8,0.1-1.7,0.2-2.5,0.4c-1.4,0.3-2.8,0.3-4.1-0.2c-1.2-0.5-2.4-0.5-3.7-0.1  c-1.8,0.6-3.5,0.5-5.3,0.2c-1.7-0.3-3.4-0.3-5.1-0.2c-1.8,0.1-3.5,0.4-5.3,0.5c-1.1,0.1-2.2,0.1-3.2,0.2c-1.1,0.1-2.1,0.3-3.2,0.8  c0.4,0.1,0.7,0.3,1.1,0.3c1.9,0,3.9,0,5.8,0.1c1.4,0,2.8,0.2,4.2,0.3c0.8,0,1.7,0.1,2.5,0c3.3-0.3,6.5-0.5,9.8,0  c0.9,0.1,1.8-0.1,2.8-0.1c1.4,0,2.8,0.1,4.1,0.3c0.4,0.1,0.8,0.6,1.6,1.1c-0.8,0.1-1.2,0.2-1.5,0.1c-1.8-0.5-3.5-0.4-5.3,0.1  c-0.8,0.2-1.7,0.3-2.5,0.4c-1.7,0.1-3.4,0.1-5.1,0.1c-0.6,0-1.3,0-1.8-0.2c-1.4-0.5-2.7-0.4-4.1-0.1c-0.7,0.2-1.5,0.1-2.3,0  c-1.9-0.2-3.9-0.3-5.8,0.1c-0.1,0-0.2,0-0.2,0c-4.5,0.2-9,0.4-13.5,0.4c-4.4,0-8.8-0.3-13.2-0.3c-9.5,0.1-19.1,0-28.6,0.7  c-3.2,0.2-6.4,0.2-9.5,0.3c-4.6,0.2-9.3,0.6-13.9,0.7c-3.4,0.1-6.8,0.6-10.2,0.3c-1.7-0.2-3.4,0.1-5.1,0.1c-9,0.1-18,0.3-27-0.1  c-1.9-0.1-3.7,0.1-5.6,0.1c-3.3,0-6.5,0-9.8-0.1c-8.7-0.1-17.4-0.2-26.1-0.2c-7.3,0-14.6,0.1-21.9,0.2c-6.9,0.1-13.8,0.2-20.7,0.3  c-9.2,0.1-18.3,0.2-27.5,0.1c-5,0-9.9-0.5-14.9-0.7c-3.7-0.2-7.4-0.4-11.2-0.4c-8.1,0-16.1,0.2-24.2,0.3  c-12.8,0.1-25.6,0.3-38.4,0.4c-6.9,0-13.8,0-20.7,0c-9,0-18,0.1-27,0.1c-6.1,0-12.1-0.1-18.2-0.1c-10.2,0-20.5,0-30.7,0  c-11.3,0-22.5-0.1-33.8-0.1c-6.3,0-12.6,0.1-18.9,0.1c-4.6,0-9.2,0-13.7,0.1c-8.1,0-16.3,0.1-24.4,0.1c-6.9,0-13.8-0.1-20.7-0.1  c-4,0-7.9,0-11.9,0.1c-14,0.2-27.9,0.4-41.9,0.5c-11.3,0.1-22.7-0.1-34-0.1c-3.6,0-7.3-0.1-10.9-0.2c-2.3-0.1-4.7-0.2-7-0.4  c-6.2-0.6-12.4-0.7-18.6-0.7c-8.5,0-17.1,0.4-25.6,0.5c-6.7,0.1-13.4,0.2-20,0.2c-7.1,0.1-14.1,0.1-21.2,0.1c-8.4,0-16.8-0.1-25.2,0  c-10.2,0-20.5,0.2-30.7,0.2c-12.5,0-25,0-37.5,0c-7.1,0-14.3,0.1-21.4,0.1c-7.8,0-15.5,0.1-23.3-0.1c-9-0.2-18-0.7-27-0.9  c-7.1-0.1-14.1,0-21.2,0.1c-10.2,0.1-20.3,0.3-30.5,0.4c-6.1,0-12.1-0.2-18.2-0.3c-8.5-0.1-17.1-0.1-25.6-0.1  c-11.4,0-22.8,0.1-34.2,0.1c-5.2,0-10.4-0.1-15.6,0c-6.4,0.1-12.7,0.3-19.1,0.4c-3,0.1-6.1,0-9.1,0.1c-2.3,0-4.7,0.2-7,0.2  c-3.3-0.1-6.7-0.3-10-0.5c-3.9-0.2-7.7-0.5-11.6-0.6c-6.6-0.1-13.2,0-19.8,0.1c-4.3,0-8.5,0.2-12.8,0.3c-9,0-18,0-27,0  c-9.6,0-19.1,0-28.7,0c-7,0-14,0-21-0.1c-6.1-0.1-12.3-0.3-18.4-0.4c-0.6,0-1.2-0.1-1.8-0.6c0.4-0.2,0.7-0.4,1.1-0.4  c2.4-0.2,4.8-0.3,7.2-0.4c1.2-0.1,2.5-0.1,3.7-0.2c0.4,0,0.8-0.1,1.2-0.1c5.8,0.6,11.6,0,17.4-0.1c7.9-0.1,15.8,0,23.8-0.1  c1.7,0,3.4-0.1,5.6-0.1c-2.2-1.1-4-1.6-5.8-1.1c-2.7,0.7-5.4,0.5-8.1,0.2c-2.5-0.3-5-0.1-7.4,0c-1,0-2,0-2.9-0.6  c-1.4-0.8-2.7-1-4.2-0.1c-0.8,0.5-1.5,0.4-2.1-0.3c-1-1-2.2-0.8-3.5-0.7c-3,0.3-6,0.8-9-0.1c-0.8-0.2-1.5-0.3-2.2,0.2  c-0.1,0-0.1,0.1-0.2,0.1c-2.3,0.3-4.6,0.3-6.9,0.8c-0.5,0.1-1.2-0.3-1.7-0.6c-1.7-1-3.5-1.3-5.4-1.3c-1.7-0.1-3.4,0-5.1,0.2  c-1.3,0.1-2.5,0-3.5-0.7c-0.8-0.6-1.5-0.6-2.4-0.2c-1.1,0.5-2.2,0.6-3.4,0.4c-0.8-0.1-1.7-0.1-2.6-0.2c-0.7-0.1-1.5-0.1-2-0.4  c-2.1-1.3-4.5-1.1-6.8-1.1c-2.2,0-4.3-0.1-6.5-0.1c-0.8,0-1.7,0-2.5,0.2c-1.3,0.4-2.6,0.4-3.8-0.3c-2-1.1-4.2-1.2-6.5-1.2  c-2.3,0-4.6,0.4-6.9-0.3c-0.5-0.1-1.1-0.1-1.6-0.1c-0.4,0-0.8,0.1-1.2,0c-2.4-0.4-4.7-0.8-7.1-1.3c-1-0.2-1.9-0.3-2.9,0.1  c-1.8,0.7-1.9,0.6-2.8-1.2c-0.1-0.2-0.3-0.4-0.4-0.6c-1-0.5-1.9,0-2.6,0.5c-1.5,1-2.9,2.1-4.3,3.1c-0.3,0.2-0.8,0.3-1.5,0.7  c0.2-0.8,0.3-1.2,0.5-1.6c2.1-3.1,4.6-5.8,7.8-7.9c0.7-0.5,1.7-0.7,2.6-0.7c3.9-0.1,7.8-0.1,11.6,0c7.7,0.2,15.4,0.6,23,0.8  c7.1,0.1,14.1,0,21.2,0.1c9.8,0.2,19.6-0.4,29.3-0.8c5.2-0.2,10.4-0.5,15.6-0.5c8.7,0,17.4,0.2,26.1,0.2c8,0,16,0,24-0.1  c10.2-0.1,20.3-0.1,30.5-0.3c8.8-0.1,17.7-0.2,26.5-0.3c14.4-0.2,28.9-0.1,43.3,0.3c4.4,0.1,8.8-0.2,13.3-0.6c8-0.7,16-0.7,24-0.7  c17.1,0,34.2,0.1,51.2,0.1c8.9,0,17.9-0.1,26.8-0.1c11.3,0,22.5,0.2,33.8,0.2c8.2,0,16.3-0.2,24.5-0.2c8.3,0,16.6,0,24.9,0.1  c9.1,0.1,18.2,0.1,27.2-0.4c11.2-0.6,22.5-0.8,33.8-0.8c14.1,0,28.1,0,42.2,0c6.8,0,13.5,0,20.3,0c9,0,18-0.1,27-0.1  c9.7,0,19.4,0.1,29.1,0.1c10.8,0,21.6-0.1,32.4-0.2c7.8,0,15.7-0.1,23.5-0.1c9.3,0,18.6,0.1,28-0.1c8.1-0.1,16.1-0.5,24.2-0.7  c6.1-0.1,12.1-0.1,18.2-0.1c10.9,0,21.9,0.1,32.8,0.1c11.2,0,22.4,0,33.5,0c21.2,0,42.4,0.1,63.6,0.1c13.6,0,27.2-0.1,40.8-0.2  c11.3-0.1,22.7-0.2,34-0.3c8.2-0.1,16.5-0.1,24.7-0.1c6.3,0,12.6-0.2,18.9-0.2c14,0,28,0.1,41.9,0.1c6.3,0,12.6,0,18.9-0.1  c6.1,0,12.1,0,18.2,0c6.7,0,13.4,0,20,0c16.6-0.1,33.2-0.3,49.8-0.4c8.1-0.1,16.1-0.1,24.2-0.1c14.8,0,29.5,0,44.3,0.1  c8.3,0,16.6,0.1,24.9,0.1c6.4,0,12.7-0.1,19.1-0.1c2.6,0,5.3,0.1,7.9,0.1c9.9-0.1,19.9-0.2,29.8-0.4c12.5-0.2,25-0.4,37.5-0.5  c3.9,0,7.8,0.1,11.6,0.2c6.9,0,13.8,0,20.7,0.1c4.2,0.1,8.4,0.6,12.6,0.7c4.3,0.2,8.7,0.3,13,0.3c6.2,0,12.4-0.3,18.6-0.4  c16.3-0.2,32.6-0.4,48.9-0.5c10,0,20,0,30,0.6c9.3,0.5,18.6,0.9,27.9,1.2c2.6,0.1,5.1,0.5,7.7,0.1c1.2-0.2,2.3,0.3,3.1,1.2  c1.4,1.6,2.9,3.1,4.1,4.7c1.3,1.7,1.5,3.6,0.5,5.5c-0.6,1.1-1.2,2.2-2,3.1c-1.1,1.3-2.3,2.5-3.5,3.7c-1.1,1.1-2.4,1.5-3.8,1.2  c-3.3-0.6-6.7-0.4-10-0.3c-5.4,0.1-10.7,0.2-16.1,0.3c-2.7,0.1-5.4,0.2-8.1,0.3c-0.9,0-1.9,0.1-2.8,0.1c-9.2-0.1-18.5-0.2-27.7-0.2  c-8.2,0-16.3,0.1-24.5,0.2c-7,0.1-14,0.1-21,0.2c-0.7,0-1.4-0.1-2.1,0c-2.8,0.4-5.6,0.1-8.4,0.2c-1.9,0-3.9,0.2-5.8,0.2  c-1.1,0-2.2-0.1-3.3-0.1c-4.4,0-8.8,0-13.2,0.1c-2.4,0.1-4.8,0.4-7.2,0.5c-2.8,0.1-5.6,0.1-8.4,0.1c-4.1,0-8.2,0-12.3,0  c-4.2,0.1-8.4,0.2-12.6,0.3c-2.7,0-5.4,0-8.1-0.1c-0.1,0-0.2,0-0.2,0c-1.5-0.6-3.1-1-4.6-0.1c-1.6-0.6-3.2,0.1-4.8,0.1  c-2,0-4,0-6.1-0.1C1332.1,295.3,1331.9,294.9,1331.7,293.2z M1386.8,292.4c0-0.1,0-0.2,0-0.4c-0.3,0-0.5-0.1-0.8-0.1  c-0.1,0-0.3,0.2-0.8,0.6C1386.1,292.5,1386.4,292.5,1386.8,292.4z M139.9,293.6c0.2,0.2,0.3,0.3,0.4,0.3c0.1,0,0.2-0.2,0.3-0.2  C140.4,293.7,140.2,293.6,139.9,293.6z"/>
</svg>
