<?xml version="1.0" encoding="utf-8"?>
<!-- Generator: Adobe Illustrator 24.1.2, SVG Export Plug-In . SVG Version: 6.00 Build 0)  -->
<svg xmlns="http://www.w3.org/2000/svg" xmlns:xlink="http://www.w3.org/1999/xlink" version="1.1" x="0px" y="0px" width="1600px" height="131.1px" viewBox="0 0 1600 131.1" style="enable-background:new 0 0 1600 131.1;" xml:space="preserve">
<style type="text/css">
	.st0{fill:#FFFFFF;}
</style>
<path class="st0" d="M40.2,7.3c-12.1,0-22.5,8.4-22.5,19.4s9.7,15.9,32,29.1s36.4,20.2,36.4,39.8S70.1,131.1,47,131.1  s-33.9-7.8-47-33.3l4.3-2.2c13.3,24.8,31.5,28.3,41,28.3s24.5-5.2,24.5-20.7S51.1,80.1,39,73.1S3,57,3,32.8C3,12.1,21.4,0,39.7,0  c13.1,0,26.2,7.2,29,7.2s5.9-3.4,5.9-7.2h3.6v43.5h-3.7C72.4,16,52.3,7.3,40.2,7.3z M334,96.7c-8.6,15.1-13.2,24.7-33,24.7h-27.4  c-4.2,0-7.6-3.4-7.6-7.6V66h36.9l2.7-6.8H266V9.7c0,0,22.5,0,37.7,0c19.7,0,18.7,13.1,21,20.5h3.6L327,2.9h-96.6v3.3  c13.7,0,17.7,2.7,17.7,12.1s0,109.9,0,109.9H327l11-31.4H334z M600.2,128.2h-33.6l-42.3-58.5c-2,0.1-3.8,0.1-5.3,0.1l-7.9-0.1v58.5  h-17.6c0,0,0-93.8,0-105.2c0-10.5-0.8-16.7-17.8-16.7V2.9h54.1c10.8,0,43.6,2.7,43.6,32.5c0,19.8-15.7,28.3-31,31.9  c5.1,7.1,20.1,27.9,28.6,39.7c10.3,14.3,20.6,17.7,29.4,17.7V128.2z M520.1,63.8c9.1,0,32.2-4.8,32.2-27.7S530.8,9.8,525.7,9.8  s-14.6,1.8-14.6,1.8v52.2H520.1z M714.9,2.9v3.3c11.2,0.8,15,6.9,16.3,9.4c1.3,2.5,50.5,115.5,50.5,115.5h3.5  c0,0,42.8-104.6,45.6-111c3.1-7.2,8.4-12.4,16.8-13.9V2.9h-38.7v3.3c6.5,1,16.1,2.9,12.6,13.5c-3.5,10.6-33.1,82.7-33.1,82.7  L745.2,2.9H714.9z M1090.1,124.7v3.5h-30.4l-17.4-41.9h-48.5l-17.9,41.9h-9.1L1021.7,0h3.4l45.6,108.6  C1076.2,121.3,1080,123.9,1090.1,124.7z M1039.4,79.5l-21.1-50.8l-21.7,50.8H1039.4z M1356.3,2.9h-43.5v3.3  c12.1,0,17.7,1.4,17.7,15.4c0,14,0,75.5,0,75.5l-76.5-94.2h-34v3.3c10.3,0,16.8,3.7,24.5,13c0,0,0,0,0.1,0.1v108.9h7.9V29  c22.7,27.8,82.9,101.4,82.9,101.4h3.3c0,0,0-98.7,0-109.9c0-11.3,4.7-14.5,17.6-14.2V2.9z M1598.5,2.9h-102.3l-1.5,29.4h3.8  c0-13.8,8.9-21.6,19.8-21.6c10.9,0,20,0,20,0v117.4h17.6V10.7c0,0,9.7,0,20.6,0c10.9,0,19.8,7.8,19.8,21.6h3.8L1598.5,2.9z"/>
</svg>
